<?xml version="1.0" standalone="no"?>
<!DOCTYPE svg PUBLIC "-//W3C//DTD SVG 1.1//EN" "http://www.w3.org/Graphics/SVG/1.1/DTD/svg11.dtd" >
<svg>
<metadata>
Created by FontForge 20110222 at Sat Aug 24 22:18:16 2013
 By www-data
</metadata>
<defs>
<font id="cards" horiz-adv-x="1100" >
  <font-face 
    font-family="Playing Cards"
    font-weight="400"
    font-stretch="normal"
    units-per-em="1000"
    panose-1="0 0 5 0 0 0 0 0 0 0"
    ascent="800"
    descent="-200"
    x-height="1300"
    cap-height="1300"
    bbox="-1 0 1600 1300"
    underline-thickness="10"
    underline-position="5"
    unicode-range="U+0020-007A"
  />
<missing-glyph horiz-adv-x="502" 
d="M-1 0h500v500h-500v-500zM9 10v480h480v-480h-480z" />
    <glyph glyph-name=".notdef" horiz-adv-x="502" 
d="M-1 0h500v500h-500v-500zM9 10v480h480v-480h-480z" />
    <glyph glyph-name=".null" horiz-adv-x="0" 
 />
    <glyph glyph-name="nonmarkingreturn" horiz-adv-x="500" 
 />
    <glyph glyph-name="space" unicode=" " horiz-adv-x="500" 
 />
    <glyph glyph-name="space" unicode="&#xa0;" horiz-adv-x="500" 
 />
    <glyph glyph-name="percent" unicode="%" 
d="M538 490q-28 0 -43.5 18t-15.5 42q0 25 15.5 42.5t43.5 17.5t43.5 -17.5t15.5 -42.5q0 -24 -15.5 -42t-43.5 -18zM840 200q-28 0 -44 18t-16 42t16 42t44 18t44 -18t16 -42t-16 -42t-44 -18zM260 780q-28 0 -44 18t-16 42t16 42t44 18t44 -18t16 -42t-16 -42t-44 -18z
M260 200q-28 0 -44 18t-16 42t16 42t44 18t44 -18t16 -42t-16 -42t-44 -18zM840 780q-28 0 -44 18t-16 42t16 42t44 18t44 -18t16 -42t-16 -42t-44 -18zM1000 1000h-900v-900h900v900z" />
    <glyph glyph-name="ampersand" unicode="&#x26;" horiz-adv-x="1600" 
d="M331 953h-7q-5 -1 -7 -1q-34 0 -52.5 19t-18.5 43q0 22 14 37t38 15q15 0 31 -6l2 20q-19 9 -37 9q-31 0 -50.5 -23t-19.5 -53q0 -33 26 -55.5t81 -22.5v18zM304 907q57 0 89.5 32t32.5 75t-32 73.5t-90 30.5t-90 -30.5t-32 -73.5t32.5 -75t89.5 -32zM304 918
q-51 0 -80.5 29t-29.5 68t29 66.5t81 27.5q53 0 81.5 -27.5t28.5 -66.5t-29.5 -68t-80.5 -29zM980 1034v-65h-48zM877 967v-40h103v-127h40v129h25v40h-25v131h-40zM636 976l-78 -176h40l94 194q3 19 3 36q0 40 -17 59.5t-42 19.5q-26 0 -46.5 -17.5t-20.5 -40.5
q0 -19 16 -38.5t51 -36.5zM651 1002q-45 28 -45 47q0 16 30 29q25 -12 25 -34q0 -15 -10 -42zM818 1002q-45 28 -45 47q0 16 30 29q25 -12 25 -34q0 -15 -10 -42zM803 976l-78 -176h40l94 194q3 19 3 36q0 40 -17 59.5t-42 19.5q-26 0 -46.5 -17.5t-20.5 -40.5
q0 -19 16 -38.5t51 -36.5zM518 1100h-40v-300h40v300zM415 540l85 -140h40l-87 146q31 13 48 35t17 47q0 33 -31 57t-87 24q-32 0 -70 -9v-300h40v140h45zM369 580v80q22 6 41 6q30 0 45.5 -12.5t15.5 -28.5q0 -19 -19 -33.5t-52 -14.5q-15 0 -31 3zM640 544l90 156h-40
l-70 -117l-70 117h-40l90 -156v-144h40v144zM140 0h40v300h-40v-210l-100 210h-40v-300h40v210zM605 300h-40l100 -300h40l100 300h-40l-80 -249zM520 249l43 -129h-82zM573 80l27 -80h40l-100 300h-40l-100 -300h40l27 80h106zM1025 40v-40h125v40h-42v222h42v38h-125v-38
h43v-222h-43zM1435 300h-40v-300h205v40h-165v260zM1210 300h-40v-300h205v40h-165v260zM853 480l27 -80h40l-100 300h-40l-100 -300h40l27 80h106zM800 649l43 -129h-82zM320 180h-80v80h140v40h-180v-300h180v40h-140v100h80v40zM945 180h-80v80h140v40h-180v-300h180v40
h-140v100h80v40zM1080 400h40v300h-40v-210l-100 210h-40v-300h40v210z" />
    <glyph glyph-name="one" unicode="1" 
d="M538 490q28 0 43.5 18t15.5 42q0 25 -15.5 42.5t-43.5 17.5t-43.5 -17.5t-15.5 -42.5q0 -24 15.5 -42t43.5 -18zM120 120v860h860v-860h-860zM1000 1000h-900v-900h900v900z" />
    <glyph glyph-name="two" unicode="2" 
d="M260 780q28 0 44 18t16 42t-16 42t-44 18t-44 -18t-16 -42t16 -42t44 -18zM840 200q28 0 44 18t16 42t-16 42t-44 18t-44 -18t-16 -42t16 -42t44 -18zM120 120v860h860v-860h-860zM1000 1000h-900v-900h900v900z" />
    <glyph glyph-name="three" unicode="3" 
d="M550 490q28 0 44 18t16 42t-16 42t-44 18t-44 -18t-16 -42t16 -42t44 -18zM260 780q28 0 44 18t16 42t-16 42t-44 18t-44 -18t-16 -42t16 -42t44 -18zM840 200q28 0 44 18t16 42t-16 42t-44 18t-44 -18t-16 -42t16 -42t44 -18zM120 120v860h860v-860h-860zM1000 1000
h-900v-900h900v900z" />
    <glyph glyph-name="four" unicode="4" 
d="M840 200q28 0 44 18t16 42t-16 42t-44 18t-44 -18t-16 -42t16 -42t44 -18zM260 780q28 0 44 18t16 42t-16 42t-44 18t-44 -18t-16 -42t16 -42t44 -18zM260 200q28 0 44 18t16 42t-16 42t-44 18t-44 -18t-16 -42t16 -42t44 -18zM840 780q28 0 44 18t16 42t-16 42t-44 18
t-44 -18t-16 -42t16 -42t44 -18zM120 120v860h860v-860h-860zM1000 1000h-900v-900h900v900z" />
    <glyph glyph-name="five" unicode="5" 
d="M538 490q28 0 43.5 18t15.5 42q0 25 -15.5 42.5t-43.5 17.5t-43.5 -17.5t-15.5 -42.5q0 -24 15.5 -42t43.5 -18zM840 200q28 0 44 18t16 42t-16 42t-44 18t-44 -18t-16 -42t16 -42t44 -18zM260 780q28 0 44 18t16 42t-16 42t-44 18t-44 -18t-16 -42t16 -42t44 -18z
M260 200q28 0 44 18t16 42t-16 42t-44 18t-44 -18t-16 -42t16 -42t44 -18zM840 780q28 0 44 18t16 42t-16 42t-44 18t-44 -18t-16 -42t16 -42t44 -18zM120 120v860h860v-860h-860zM1000 1000h-900v-900h900v900z" />
    <glyph glyph-name="six" unicode="6" 
d="M260 490q28 0 43.5 18t15.5 42q0 25 -15.5 42.5t-43.5 17.5t-43.5 -17.5t-15.5 -42.5q0 -24 15.5 -42t43.5 -18zM840 490q28 0 43.5 18t15.5 42q0 25 -15.5 42.5t-43.5 17.5t-43.5 -17.5t-15.5 -42.5q0 -24 15.5 -42t43.5 -18zM840 200q28 0 44 18t16 42t-16 42t-44 18
t-44 -18t-16 -42t16 -42t44 -18zM260 780q28 0 44 18t16 42t-16 42t-44 18t-44 -18t-16 -42t16 -42t44 -18zM260 200q28 0 44 18t16 42t-16 42t-44 18t-44 -18t-16 -42t16 -42t44 -18zM840 780q28 0 44 18t16 42t-16 42t-44 18t-44 -18t-16 -42t16 -42t44 -18zM120 120v860
h860v-860h-860zM1000 1000h-900v-900h900v900z" />
    <glyph glyph-name="question" unicode="?" 
d="M572 683q5 -46 34 -46q19 0 34.5 22.5t17.5 61.5q-6 -23 -19.5 -32t-34.5 -9q-12 0 -32 3zM537 683q-20 -3 -32 -3q-21 0 -34.5 9t-19.5 32q2 -38 18 -61t34 -23q29 0 34 46zM620 604q-32 -56 -68 -56q-35 0 -66 54q10 -47 27.5 -72.5t38.5 -25.5q19 0 37.5 25.5
t30.5 74.5zM550 446q-20 24 -40.5 55t-38.5 65t-29 66t-11 57q0 29 16.5 45t51.5 16q24 0 56 -8q32 8 56 8q35 0 51 -15.5t16 -43.5q0 -25 -12 -57.5t-31 -66.5t-41.5 -65.5t-43.5 -55.5zM550 432q73 79 108 148t35 116q0 40 -22 56q10 50 32 77.5t47 27.5q21 0 36.5 -19.5
t19.5 -56.5q-29 -7 -29 -32q0 -14 11 -24.5t28 -10.5q1 0 6 1h5q19 4 28.5 14.5t9.5 23.5t-8.5 23t-22.5 10q-5 0 -10 -2q-3 39 -26.5 69t-57.5 30q-26 0 -54.5 -21.5t-56.5 -67.5v5q-1 3 -1 5q0 20 8.5 44.5t23 47t33.5 37t39 14.5q28 0 52 -28q-3 -6 -3 -12
q0 -11 8.5 -19.5t20.5 -8.5q20 0 29 28q4 10 4 19q0 13 -7.5 21.5t-17.5 8.5q-18 0 -26 -22q-12 15 -35 25.5t-49 10.5q-43 0 -79.5 -33t-54.5 -107q6 48 6 85q0 109 -55 154q24 7 24 27q0 23 -27 23q-16 0 -36 -10q-25 -10 -25 -28q0 -11 8.5 -19t22.5 -8q9 0 19 5
q9 -3 14.5 -35t5.5 -77q0 -31 -3 -62t-9 -54q-14 73 -48.5 106t-76.5 33q-26 0 -49 -10.5t-35 -25.5q-7 22 -26 22q-10 0 -17.5 -8.5t-7.5 -21.5q0 -9 4 -19q9 -28 30 -28q11 0 19.5 8.5t8.5 19.5q0 6 -3 12q24 28 52 28q20 0 39 -14.5t33.5 -37t23 -47t8.5 -44.5
q0 -2 -1 -5v-5q-28 46 -56.5 67.5t-54.5 21.5q-33 0 -57 -30t-27 -69q-5 2 -10 2q-13 0 -22 -10t-9 -23t9.5 -23.5t28.5 -14.5h6q4 -1 5 -1q17 0 28 10.5t11 24.5q0 25 -29 32q4 37 19.5 56.5t36.5 19.5q25 0 47 -27.5t32 -77.5q-22 -16 -22 -56q0 -48 35 -116.5t106 -147.5
zM980 120h-860v1160h860v-1160zM1000 1300h-900v-1200h900v1200z" />
    <glyph glyph-name="at" unicode="@" 
d="M260 780q-28 0 -44 18t-16 42t16 42t44 18t44 -18t16 -42t-16 -42t-44 -18zM840 200q-28 0 -44 18t-16 42t16 42t44 18t44 -18t16 -42t-16 -42t-44 -18zM1000 1000h-900v-900h900v900z" />
    <glyph glyph-name="A" unicode="A" 
d="M926 230h-41l-12 38h-12l36 -118h16l37 118h-13zM922 218l-17 -56l-17 56h34zM905 306l35 57l-35 57l-35 -57zM216 1170l11 -38h13l-37 118h-16l-36 -118h12l12 38h41zM212 1182h-34l17 56zM195 1094l-35 -57l35 -57l35 57zM550 803l-63 -103l63 -103l63 103zM980 120
h-860v1160h860v-1160zM1000 1300h-900v-1200h900v1200z" />
    <glyph glyph-name="B" unicode="B" 
d="M866 268v-10h69q-25 -15 -43 -38.5t-18 -42.5q0 -28 40 -31q20 2 28 11.5t8 23.5h-13q-1 -10 -5.5 -16.5t-17.5 -7.5q-26 3 -26 20q0 15 19 37.5t43 40.5v13h-84zM163 1219q1 10 5.5 16.5t17.5 7.5q26 -3 26 -20q0 -15 -19 -37.5t-43 -40.5v-13h84v10h-69q25 16 43 39
t18 42q0 28 -40 31q-19 -2 -27.5 -11.5t-8.5 -23.5h13zM550 1200l-63 -103l63 -103l63 103zM905 306l35 57l-35 57l-35 -57zM195 1094l-35 -57l35 -57l35 57zM550 406l-63 -103l63 -103l63 103zM980 120h-860v1160h860v-1160zM1000 1300h-900v-1200h900v1200z" />
    <glyph glyph-name="C" unicode="C" 
d="M917 207v7h-20q-7 1 -14 9l-1 1q-5 6 -5 13q0 8 6.5 13.5t20.5 6.5q13 -1 17.5 -7.5t5.5 -16.5h13q0 14 -8 23.5t-28 11.5q-40 -4 -40 -32q0 -17 19 -29q-19 -12 -19 -29q0 -28 40 -32q20 2 28 11.5t8 23.5h-13q-1 -10 -5.5 -16.5t-17.5 -7.5q-14 1 -20.5 6.5t-6.5 13.5
q0 7 5 13l1 1q7 8 14 9h20v7zM183 1193v-7h20q7 -1 14 -9l1 -1q5 -6 5 -13q0 -8 -6 -13.5t-21 -6.5q-13 1 -17.5 7.5t-5.5 16.5h-13q0 -14 8.5 -23.5t27.5 -11.5q40 4 40 32q0 17 -19 29q19 12 19 29q0 28 -40 32q-19 -2 -27.5 -11.5t-8.5 -23.5h13q1 10 5.5 16.5t17.5 7.5
q14 -1 20.5 -6.5t6.5 -13.5q0 -7 -5 -13l-1 -1q-7 -8 -14 -9h-20v-7zM550 1200l-63 -103l63 -103l63 103zM550 803l-63 -103l63 -103l63 103zM905 306l35 57l-35 57l-35 -57zM195 1094l-35 -57l35 -57l35 57zM550 406l-63 -103l63 -103l63 103zM980 120h-860v1160h860v-1160
zM1000 1300h-900v-1200h900v1200z" />
    <glyph glyph-name="D" unicode="D" 
d="M865 237v-10h15v-81h10l60 81v10h-60v31h-10v-31h-15zM936 227l-46 -63v63h46zM210 1254l-60 -81v-10h60v-31h10v31h15v10h-15v81h-10zM164 1173h46v63zM730 406l-63 -103l63 -103l63 103zM730 1200l-63 -103l63 -103l63 103zM370 1200l-63 -103l63 -103l63 103zM905 306
l35 57l-35 57l-35 -57zM195 1094l-35 -57l35 -57l35 57zM370 406l-63 -103l63 -103l63 103zM980 120h-860v1160h860v-1160zM1000 1300h-900v-1200h900v1200z" />
    <glyph glyph-name="E" unicode="E" 
d="M950 250v10q-23 8 -41 8q-23 0 -33.5 -12t-10.5 -29q0 -20 15 -31.5t35 -11.5q15 0 25 7v-35h-65v-10h75v60q-21 -11 -38 -11q-31 0 -37 32q3 30 35 30q16 0 40 -7zM150 1150v-10q23 -8 41 -8q23 0 33.5 12.5t10.5 28.5q0 20 -15 31.5t-35 11.5q-15 0 -25 -7v35h65v10
h-75v-60q21 11 38 11q31 0 37 -32q-3 -30 -35 -30q-16 0 -40 7zM550 803l-63 -103l63 -103l63 103zM730 406l-63 -103l63 -103l63 103zM730 1200l-63 -103l63 -103l63 103zM370 1200l-63 -103l63 -103l63 103zM905 306l35 57l-35 57l-35 -57zM195 1094l-35 -57l35 -57l35 57
zM370 406l-63 -103l63 -103l63 103zM980 120h-860v1160h860v-1160zM1000 1300h-900v-1200h900v1200z" />
    <glyph glyph-name="F" unicode="F" 
d="M950 174v56q0 18 -12.5 28t-29.5 10q-18 0 -30.5 -10t-12.5 -28q0 -23 12 -34t29 -11q12 0 22 5t12 13v-29q-7 -18 -32 -18t-29 17h-10q0 -13 11.5 -20.5t27.5 -7.5t28 8t14 21zM940 230q0 -16 -9.5 -24.5t-22.5 -8.5t-23 9t-10 24q0 13 9.5 20t22.5 7t23 -7t10 -20z
M160 1170q0 16 9.5 24.5t22.5 8.5t23 -9t10 -24q0 -13 -9.5 -19.5t-22.5 -6.5t-23 7t-10 19zM150 1226v-56q0 -18 12.5 -28t30.5 -10q17 0 29.5 10t12.5 28q0 23 -12 34t-29 11q-12 0 -22 -5t-12 -13v29q7 18 32 18t29 -17h10q0 13 -11.5 20.5t-27.5 7.5t-28 -7.5t-14 -21.5
zM730 803l-63 -103l63 -103l63 103zM370 803l-63 -103l63 -103l63 103zM730 406l-63 -103l63 -103l63 103zM730 1200l-63 -103l63 -103l63 103zM370 1200l-63 -103l63 -103l63 103zM905 306l35 57l-35 57l-35 -57zM195 1094l-35 -57l35 -57l35 57zM370 406l-63 -103l63 -103
l63 103zM980 120h-860v1160h860v-1160zM1000 1300h-900v-1200h900v1200z" />
    <glyph glyph-name="G" unicode="G" 
d="M862 161v-15h82v15h-62q24 48 30 108h-15q-4 -31 -11.5 -56t-23.5 -52zM203 1133q4 31 12 56t23 52v15h-82v-15h62q-24 -48 -30 -108h15zM550 1002l-63 -103l63 -103l63 103zM730 803l-63 -103l63 -103l63 103zM370 803l-63 -103l63 -103l63 103zM730 406l-63 -103
l63 -103l63 103zM730 1200l-63 -103l63 -103l63 103zM370 1200l-63 -103l63 -103l63 103zM905 306l35 57l-35 57l-35 -57zM195 1094l-35 -57l35 -57l35 57zM370 406l-63 -103l63 -103l63 103zM980 120h-860v1160h860v-1160zM1000 1300h-900v-1200h900v1200z" />
    <glyph glyph-name="H" unicode="H" 
d="M195 1143q-14 1 -20.5 6.5t-6.5 13.5q0 7 5 13l1 1q3 3 7.5 5.5t13.5 3.5q9 0 13.5 -3t7.5 -6l1 -1q5 -6 5 -13q0 -8 -6 -13.5t-21 -6.5zM195 1254q-40 -4 -40 -32q0 -17 19 -29q-19 -12 -19 -29q0 -28 40 -32q40 4 40 32q0 17 -19 29q19 12 19 29q0 28 -40 32zM195 1200
q-9 1 -13.5 3.5t-7.5 5.5l-1 1q-5 6 -5 13q0 8 6.5 13.5t20.5 6.5q14 -1 20.5 -6.5t6.5 -13.5q0 -7 -5 -13l-1 -1q-3 -3 -7.5 -5.5t-13.5 -3.5zM905 214q-9 1 -13.5 3.5t-7.5 5.5l-1 1q-5 6 -5 13q0 8 6.5 13.5t20.5 6.5q14 -1 20.5 -6.5t6.5 -13.5q0 -7 -5 -13l-1 -1
q-3 -3 -7.5 -5.5t-13.5 -3.5zM905 268q-40 -4 -40 -32q0 -17 19 -29q-19 -12 -19 -29q0 -28 40 -32q40 4 40 32q0 17 -19 29q19 12 19 29q0 28 -40 32zM905 157q-14 1 -20.5 6.5t-6.5 13.5q0 7 5 13l1 1q3 3 7.5 5.5t13.5 3.5q9 0 13.5 -3t7.5 -6l1 -1q5 -6 5 -13
q0 -8 -6 -13.5t-21 -6.5zM550 1002l-63 -103l63 -103l63 103zM550 605l-63 -103l63 -103l63 103zM730 803l-63 -103l63 -103l63 103zM370 803l-63 -103l63 -103l63 103zM730 406l-63 -103l63 -103l63 103zM730 1200l-63 -103l63 -103l63 103zM370 1200l-63 -103l63 -103
l63 103zM905 306l35 57l-35 57l-35 -57zM195 1094l-35 -57l35 -57l35 57zM370 406l-63 -103l63 -103l63 103zM980 120h-860v1160h860v-1160zM1000 1300h-900v-1200h900v1200z" />
    <glyph glyph-name="I" unicode="I" 
d="M225 1209q0 -16 -9.5 -24.5t-22.5 -8.5t-23 9t-10 24q0 13 9.5 20t22.5 7t23 -7t10 -20zM235 1153v56q0 18 -12.5 28t-29.5 10q-18 0 -30.5 -10t-12.5 -28q0 -23 12 -34t29 -11q12 0 22 5t12 13v-29q-7 -18 -32 -18t-29 17h-10q0 -13 11.5 -20.5t27.5 -7.5t28 8t14 21z
M865 247v-56q0 -18 12.5 -28t30.5 -10q17 0 29.5 10t12.5 28q0 23 -12 34t-29 11q-12 0 -22 -5t-12 -13v29q7 18 32 18t29 -17h10q0 13 -11.5 20.5t-27.5 7.5t-28 -7.5t-14 -21.5zM875 191q0 16 9.5 24.5t22.5 8.5t23 -9t10 -24q0 -13 -9.5 -19.5t-22.5 -6.5t-23 7t-10 19z
M550 803l-63 -103l63 -103l63 103zM730 936l-63 -103l63 -103l63 103zM730 671l-63 -103l63 -103l63 103zM370 936l-63 -103l63 -103l63 103zM370 671l-63 -103l63 -103l63 103zM730 406l-63 -103l63 -103l63 103zM730 1200l-63 -103l63 -103l63 103zM370 1200l-63 -103
l63 -103l63 103zM905 306l35 57l-35 57l-35 -57zM195 1094l-35 -57l35 -57l35 57zM370 406l-63 -103l63 -103l63 103zM980 120h-860v1160h860v-1160zM1000 1300h-900v-1200h900v1200z" />
    <glyph glyph-name="J" unicode="J" 
d="M953 268h-10v-120h10v120zM863 182q0 -16 9.5 -25t22.5 -9q12 0 22 9t10 25v52q0 16 -10 25.5t-22 9.5q-13 0 -22.5 -9.5t-9.5 -25.5v-52zM871 187v41q0 29 24 29t24 -29v-41q0 -28 -24 -28t-24 28zM148 1132h10v120h-10v-120zM230 1213v-41q0 -29 -24 -29t-24 29v41
q0 29 24 29t24 -29zM238 1218q0 16 -10 25.5t-22 9.5q-13 0 -22.5 -9.5t-9.5 -25.5v-52q0 -16 9.5 -25t22.5 -9q12 0 22 9t10 25v52zM550 539l-63 -103l63 -103l63 103zM550 1068l-63 -103l63 -103l63 103zM730 936l-63 -103l63 -103l63 103zM730 671l-63 -103l63 -103
l63 103zM370 936l-63 -103l63 -103l63 103zM370 671l-63 -103l63 -103l63 103zM730 406l-63 -103l63 -103l63 103zM730 1200l-63 -103l63 -103l63 103zM370 1200l-63 -103l63 -103l63 103zM905 306l35 57l-35 57l-35 -57zM195 1094l-35 -57l35 -57l35 57zM370 406l-63 -103
l63 -103l63 103zM980 120h-860v1160h860v-1160zM1000 1300h-900v-1200h900v1200z" />
    <glyph glyph-name="K" unicode="K" 
d="M852 160v-15h62v15h-20v77q0 25 15 25q7 0 13 -7t6 -19h17q0 24 -11 37t-26 13q-13 0 -24 -10.5t-12 -28.5v-87h-20zM172 1164h-17q0 -24 11 -37t26 -13q13 0 24 10.5t12 28.5v87h20v15h-62v-15h20v-77q0 -25 -15 -25q-7 0 -13 7.5t-6 18.5zM759 742l-7 5
q-38 -81 -96 -125.5t-110 -47.5l12 -7q21 1 48 13.5t55.5 35.5t54 55.5t43.5 70.5zM424 379l-37 175l-4 -2l36 -172zM411 383l5 -6l-36 174l-4 -1zM429 379l6 -5l-40 183l-4 -1zM438 377l5 -6l-40 189h-5zM541 530v7h-56v-7h56zM522 443h7l5 57h-8zM476 436q5 -12 18 -12
q10 0 17 9q-7 9 -19 9q-11 0 -16 -6zM571 436q-5 6 -15 6q-13 0 -20 -9q7 -9 17 -9q13 0 18 12zM413 523l33 -151q12 -6 48 -6q25 0 49 4t37 13q7 19 7 50q0 42 -15 85.5t-48 75.5q-45 0 -75 -18.5t-36 -52.5zM418 523q6 27 32 46.5t59 19.5h7q6 -1 7 -1q31 -32 45 -73.5
t14 -81.5q0 -29 -7 -46q-12 -8 -34.5 -12t-47.5 -4q-31 0 -43 5zM413 367q10 -6 33.5 -9.5t50.5 -3.5t49 3t31 9l29 -42h-220zM411 376l-40 -62h250l-40 62q-11 -8 -34.5 -12t-50.5 -4t-50.5 4t-34.5 12zM717 322l63 103l-63 103l-63 -103zM341 658l7 -5q38 82 96 126
t110 47l-12 7q-21 -1 -48 -13.5t-55.5 -35.5t-54 -55.5t-43.5 -70.5zM676 1021l37 -175l4 2l-36 172zM689 1017l-5 6l36 -174l4 1zM671 1021l-6 5l40 -183l4 1zM662 1023l-5 6l40 -189h5zM559 870v-7h56v7h-56zM578 957h-7l-5 -57h8zM624 964q-5 12 -18 12q-10 0 -17 -9
q7 -9 20 -9q10 0 15 6zM529 964q5 -6 16 -6q12 0 19 9q-7 9 -17 9q-13 0 -18 -12zM687 877l-33 151q-12 7 -48 7q-25 0 -49 -4.5t-37 -13.5q-7 -19 -7 -50q0 -42 15 -85.5t48 -75.5q45 0 75 18.5t36 52.5zM682 877q-5 -27 -31.5 -46.5t-59.5 -19.5q-2 0 -7 1h-7
q-30 32 -44.5 74t-14.5 81q0 29 7 46q12 8 34.5 12t47.5 4q31 0 43 -5zM687 1033q-10 6 -33.5 9.5t-50.5 3.5q-26 0 -48.5 -3t-31.5 -9l-29 42h220zM689 1024l40 62h-250l40 -62q11 8 34.5 12t50.5 4t50.5 -4t34.5 -12zM383 1078l-63 -103l63 -103l63 103zM270 1130v-860
h560v860h-560zM810 1110v-820h-520v820h520zM905 306l35 57l-35 57l-35 -57zM195 1094l-35 -57l35 -57l35 57zM980 120h-860v1160h860v-1160zM1000 1300h-900v-1200h900v1200z" />
    <glyph glyph-name="L" unicode="L" 
d="M898 239l-14 12q8 8 21 8q16 0 25.5 -13.5t9.5 -31.5q0 -19 -9.5 -32.5t-25.5 -13.5t-25 13.5t-9 32.5q0 15 6 27l13 -14zM857 278l-11 -12l19 -15q-8 -16 -8 -37q0 -26 12.5 -45t35.5 -19t35.5 19t12.5 45q0 25 -12.5 44t-35.5 19q-20 0 -32 -14zM243 1122l11 12l-19 15
q8 16 8 38q0 25 -12.5 44t-35.5 19t-35.5 -19t-12.5 -44q0 -26 12.5 -45t35.5 -19q20 0 32 14zM202 1161l14 -12q-8 -8 -21 -8q-16 0 -25 13.5t-9 32.5q0 18 9 31.5t25 13.5t25 -13.5t9 -31.5q0 -16 -6 -28l-13 14zM554 612l131 92l-4 9l-133 -94zM494 529v7h-30v-7h30z
M470 435l14 53h-7l-13 -53h6zM399 443q3 -36 23 -36q13 0 27 18q-2 0 -7 -1h-5q-24 0 -38 19zM522 443q-14 -19 -37 -19h-6q-5 1 -7 1q14 -18 27 -18q20 0 23 36zM388 592l99 30q29 -12 41 -48t12 -90q0 -49 -10 -128q-78 -41 -116 -41q-27 0 -38 19.5t-11 58.5q0 30 10 119
q8 73 12.5 123t4.5 108q0 35 -2 68l-84 -12q9 -77 15 -214q4 -82 7.5 -127t13.5 -81.5t28.5 -56t50.5 -19.5q45 0 121 43q11 87 11 143q0 60 -13.5 99.5t-44.5 52.5l-107 -34v-13zM713 812l-99 -30q-28 12 -40.5 48t-12.5 91q0 49 10 127q78 41 116 41q27 0 38 -19.5
t11 -58.5q0 -32 -10 -119q-8 -69 -12.5 -121t-4.5 -110q0 -35 2 -68l84 12q-8 78 -15 214q-4 82 -7.5 127t-13.5 81.5t-28.5 56t-50.5 19.5q-45 0 -121 -43q-11 -87 -11 -142q0 -61 13.5 -100.5t44.5 -52.5l107 34v13zM579 961q14 19 38 19h5q5 -1 7 -1q-14 18 -27 18
q-20 0 -23 -36zM702 961q-3 36 -23 36q-13 0 -27 -18q2 0 7 1h6q23 0 37 -19zM631 969l-14 -53h7l13 53h-6zM607 875v-7h30v7h-30zM565 797l-131 -92l4 -9l133 94zM373 1090l-63 -103l63 -103l63 103zM270 1130v-860h560v860h-560zM810 1110v-820h-520v820h520zM905 306
l35 57l-35 57l-35 -57zM195 1094l-35 -57l35 -57l35 57zM727 516l-63 -103l63 -103l63 103zM980 120h-860v1160h860v-1160zM1000 1300h-900v-1200h900v1200z" />
    <glyph glyph-name="M" unicode="M" 
d="M795 769l-8 8q-31 -85 -85 -129t-102 -44q-2 0 -6 1h-6v-10q22 0 50 8.5t58 28.5t56.5 54t42.5 83zM349 637q2 -69 6.5 -112.5t11 -66t12.5 -31t13 -14.5q1 0 2 -1l34 -12q-17 39 -25 67.5t-8 63.5q0 53 22 123zM504 491h4l12 45h-4zM478 560h58v6h-58v-6zM440 468
q6 4 20 4q10 0 17 -2.5t7 -8.5v-2q-1 -1 -1 -2v5q1 2 1 4q0 27 -19 27q-17 0 -25 -25zM556 468q-8 25 -25 25q-19 0 -19 -27q0 -2 1 -4v-5v2l-1 2q0 6 7 8.5t17 2.5q14 0 20 -4zM402 567l1 -8q36 29 71.5 42.5t60.5 13.5q26 -3 37 -26t11 -59q0 -25 -4 -52t-10 -57l9 3
q1 3 1 4q6 30 9.5 54.5t3.5 50.5q0 34 -9.5 57t-33.5 27l-38 72l-36 -80q-16 -2 -33 -11.5t-40 -30.5zM350 320l44 25l25 -31l25 31l35 -28l31 31l35 -28l28 32l44 -26l-34 92q-13 -12 -42.5 -18t-62.5 -6q-31 0 -56 5t-34 15zM727 310l63 103l-63 103l-63 -103zM373 1090
l-63 -103l63 -103l63 103zM750 1080l-44 -25l-25 31l-25 -31l-35 28l-31 -31l-35 28l-28 -32l-44 26l34 -92q13 12 42.5 18.5t62.5 6.5q31 0 56 -5.5t34 -15.5zM698 833l-1 8q-36 -29 -71 -42.5t-61 -13.5q-26 3 -37 26t-11 59q0 25 4 52t10 57l-9 -3q-1 -3 -1 -4
q-6 -30 -9.5 -54.5t-3.5 -50.5q0 -34 9.5 -56.5t33.5 -27.5l38 -72l36 80q16 2 33 11.5t40 30.5zM544 932q8 -25 25 -25q19 0 19 27q0 2 -1 4v5q0 -1 1 -2v-2q0 -6 -7 -8.5t-17 -2.5q-14 0 -20 4zM660 932q-6 -4 -20 -4q-10 0 -17 2.5t-7 8.5l1 2v2v-5q-1 -2 -1 -4
q0 -27 19 -27q17 0 25 25zM622 840h-58v-6h58v6zM596 909h-4l-12 -45h4zM751 763q-2 69 -6.5 112.5t-11 66t-12.5 31t-13 14.5q-1 0 -2 1l-34 12q17 -39 25 -67.5t8 -63.5q0 -52 -22 -123zM305 631l8 -8q31 85 85 129t102 44q2 0 6 -1h6v10q-22 0 -50 -8.5t-58 -28.5
t-56.5 -54t-42.5 -83zM869 281l47 -63l-47 -68h18l38 59v-59h15v131h-15v-52l-38 52h-18zM184 1182l47 68h-18l-38 -59v59h-15v-131h15v52l38 -52h18zM270 1130v-860h560v860h-560zM810 1110v-820h-520v820h520zM905 306l35 57l-35 57l-35 -57zM195 1094l-35 -57l35 -57
l35 57zM980 120h-860v1160h860v-1160zM1000 1300h-900v-1200h900v1200z" />
    <glyph glyph-name="N" unicode="N" 
d="M904 425q-43 -44 -43 -80q0 -16 7.5 -25t17.5 -9q13 0 18 15q5 -15 19 -15q9 0 16.5 9t7.5 24q0 16 -10 36.5t-33 44.5zM196 975q23 23 33 44t10 37q0 15 -7.5 24t-16.5 9q-14 0 -19 -15q-5 15 -18 15q-10 0 -17.5 -9t-7.5 -24q0 -36 43 -81zM550 596q42 42 61 79.5
t19 67.5q0 28 -14 44.5t-32 16.5q-25 0 -34 -28q-9 28 -33 28q-18 0 -32 -17t-14 -44q0 -30 18.5 -67t60.5 -80zM926 230h-41l-12 38h-12l36 -118h16l37 118h-13zM922 218l-17 -56l-17 56h34zM215 1170l11 -38h13l-37 118h-16l-36 -118h12l12 38h41zM211 1182h-34l17 56z
M980 120h-860v1160h860v-1160zM1000 1300h-900v-1200h900v1200z" />
    <glyph glyph-name="O" unicode="O" 
d="M550 980q42 42 61 79.5t19 67.5q0 28 -14 44.5t-32 16.5q-25 0 -34 -28q-9 28 -33 28q-18 0 -32 -17t-14 -44q0 -30 18.5 -67t60.5 -80zM550 420q-42 -43 -60.5 -80t-18.5 -67q0 -27 14 -44t32 -17q24 0 33 28q9 -28 34 -28q18 0 32 16.5t14 44.5q0 30 -19 67t-61 80z
M196 975q23 23 33 44t10 37q0 15 -7.5 24t-16.5 9q-14 0 -19 -15q-5 15 -18 15q-10 0 -17.5 -9t-7.5 -24q0 -36 43 -81zM904 425q-43 -44 -43 -80q0 -16 7.5 -25t17.5 -9q13 0 18 15q5 -15 19 -15q9 0 16.5 9t7.5 24q0 16 -10 36.5t-33 44.5zM861 268v-10h69
q-25 -15 -43 -38.5t-18 -42.5q0 -28 40 -31q20 2 28 11.5t8 23.5h-13q-1 -10 -5.5 -16.5t-17.5 -7.5q-26 3 -26 20q0 15 19 37.5t43 40.5v13h-84zM168 1219q1 10 5.5 16.5t17.5 7.5q26 -3 26 -20q0 -15 -19 -37.5t-43 -40.5v-13h84v10h-69q25 16 43 39t18 42q0 28 -40 31
q-19 -2 -27.5 -11.5t-8.5 -23.5h13zM980 120h-860v1160h860v-1160zM1000 1300h-900v-1200h900v1200z" />
    <glyph glyph-name="P" unicode="P" 
d="M550 420q-42 -43 -60.5 -80t-18.5 -67q0 -27 14 -44t32 -17q24 0 33 28q9 -28 34 -28q18 0 32 16.5t14 44.5q0 30 -19 67t-61 80zM550 980q42 42 61 79.5t19 67.5q0 28 -14 44.5t-32 16.5q-25 0 -34 -28q-9 28 -33 28q-18 0 -32 -17t-14 -44q0 -30 18.5 -67t60.5 -80z
M550 596q42 42 61 79.5t19 67.5q0 28 -14 44.5t-32 16.5q-25 0 -34 -28q-9 28 -33 28q-18 0 -32 -17t-14 -44q0 -30 18.5 -67t60.5 -80zM196 975q23 23 33 44t10 37q0 15 -7.5 24t-16.5 9q-14 0 -19 -15q-5 15 -18 15q-10 0 -17.5 -9t-7.5 -24q0 -36 43 -81zM904 425
q-43 -44 -43 -80q0 -16 7.5 -25t17.5 -9q13 0 18 15q5 -15 19 -15q9 0 16.5 9t7.5 24q0 16 -10 36.5t-33 44.5zM917 207v7h-20q-7 1 -14 9l-1 1q-5 6 -5 13q0 8 6.5 13.5t20.5 6.5q13 -1 17.5 -7.5t5.5 -16.5h13q0 14 -8 23.5t-28 11.5q-40 -4 -40 -32q0 -17 19 -29
q-19 -12 -19 -29q0 -28 40 -32q20 2 28 11.5t8 23.5h-13q-1 -10 -5.5 -16.5t-17.5 -7.5q-14 1 -20.5 6.5t-6.5 13.5q0 7 5 13l1 1q7 8 14 9h20v7zM183 1193v-7h20q7 -1 14 -9l1 -1q5 -6 5 -13q0 -8 -6 -13.5t-21 -6.5q-13 1 -17.5 7.5t-5.5 16.5h-13q0 -14 8.5 -23.5
t27.5 -11.5q40 4 40 32q0 17 -19 29q19 12 19 29q0 28 -40 32q-19 -2 -27.5 -11.5t-8.5 -23.5h13q1 10 5.5 16.5t17.5 7.5q14 -1 20.5 -6.5t6.5 -13.5q0 -7 -5 -13l-1 -1q-7 -8 -14 -9h-20v-7zM980 120h-860v1160h860v-1160zM1000 1300h-900v-1200h900v1200z" />
    <glyph glyph-name="Q" unicode="Q" 
d="M730 980q42 42 61 79.5t19 67.5q0 28 -14 44.5t-32 16.5q-25 0 -34 -28q-9 28 -33 28q-18 0 -32 -17t-14 -44q0 -30 18.5 -67t60.5 -80zM730 420q-42 -43 -60.5 -80t-18.5 -67q0 -27 14 -44t32 -17q24 0 33 28q9 -28 34 -28q18 0 32 16.5t14 44.5q0 30 -19 67t-61 80z
M904 425q-43 -44 -43 -80q0 -16 7.5 -25t17.5 -9q13 0 18 15q5 -15 19 -15q9 0 16.5 9t7.5 24q0 16 -10 36.5t-33 44.5zM196 975q23 23 33 44t10 37q0 15 -7.5 24t-16.5 9q-14 0 -19 -15q-5 15 -18 15q-10 0 -17.5 -9t-7.5 -24q0 -36 43 -81zM370 420q-42 -43 -60.5 -80
t-18.5 -67q0 -27 14 -44t32 -17q24 0 33 28q9 -28 34 -28q18 0 32 16.5t14 44.5q0 30 -19 67t-61 80zM370 980q42 42 61 79.5t19 67.5q0 28 -14 44.5t-32 16.5q-25 0 -34 -28q-9 28 -33 28q-18 0 -32 -17t-14 -44q0 -30 18.5 -67t60.5 -80zM865 237v-10h15v-81h10l60 81v10
h-60v31h-10v-31h-15zM936 227l-46 -63v63h46zM210 1254l-60 -81v-10h60v-31h10v31h15v10h-15v81h-10zM164 1173l46 63v-63h-46zM980 120h-860v1160h860v-1160zM1000 1300h-900v-1200h900v1200z" />
    <glyph glyph-name="R" unicode="R" 
d="M550 596q42 42 61 79.5t19 67.5q0 28 -14 44.5t-32 16.5q-25 0 -34 -28q-9 28 -33 28q-18 0 -32 -17t-14 -44q0 -30 18.5 -67t60.5 -80zM196 975q23 23 33 44t10 37q0 15 -7.5 24t-16.5 9q-14 0 -19 -15q-5 15 -18 15q-10 0 -17.5 -9t-7.5 -24q0 -36 43 -81zM904 425
q-43 -44 -43 -80q0 -16 7.5 -25t17.5 -9q13 0 18 15q5 -15 19 -15q9 0 16.5 9t7.5 24q0 16 -10 36.5t-33 44.5zM370 980q42 42 61 79.5t19 67.5q0 28 -14 44.5t-32 16.5q-25 0 -34 -28q-9 28 -33 28q-18 0 -32 -17t-14 -44q0 -30 18.5 -67t60.5 -80zM370 420
q-42 -43 -60.5 -80t-18.5 -67q0 -27 14 -44t32 -17q24 0 33 28q9 -28 34 -28q18 0 32 16.5t14 44.5q0 30 -19 67t-61 80zM730 420q-42 -43 -60.5 -80t-18.5 -67q0 -27 14 -44t32 -17q24 0 33 28q9 -28 34 -28q18 0 32 16.5t14 44.5q0 30 -19 67t-61 80zM730 980
q42 42 61 79.5t19 67.5q0 28 -14 44.5t-32 16.5q-25 0 -34 -28q-9 28 -33 28q-18 0 -32 -17t-14 -44q0 -30 18.5 -67t60.5 -80zM950 250v10q-23 8 -41 8q-23 0 -33.5 -12t-10.5 -29q0 -20 15 -31.5t35 -11.5q15 0 25 7v-35h-65v-10h75v60q-21 -11 -38 -11q-31 0 -37 32
q3 30 35 30q16 0 40 -7zM150 1150v-10q23 -8 41 -8q23 0 33.5 12.5t10.5 28.5q0 20 -15 31.5t-35 11.5q-15 0 -25 -7v35h65v10h-75v-60q21 11 38 11q31 0 37 -32q-3 -30 -35 -30q-16 0 -40 7zM980 120h-860v1160h860v-1160zM1000 1300h-900v-1200h900v1200z" />
    <glyph glyph-name="S" unicode="S" 
d="M370 596q42 42 61 79.5t19 67.5q0 28 -14 44.5t-32 16.5q-25 0 -34 -28q-9 28 -33 28q-18 0 -32 -17t-14 -44q0 -30 18.5 -67t60.5 -80zM196 975q23 23 33 44t10 37q0 15 -7.5 24t-16.5 9q-14 0 -19 -15q-5 15 -18 15q-10 0 -17.5 -9t-7.5 -24q0 -36 43 -81zM904 425
q-43 -44 -43 -80q0 -16 7.5 -25t17.5 -9q13 0 18 15q5 -15 19 -15q9 0 16.5 9t7.5 24q0 16 -10 36.5t-33 44.5zM730 980q42 42 61 79.5t19 67.5q0 28 -14 44.5t-32 16.5q-25 0 -34 -28q-9 28 -33 28q-18 0 -32 -17t-14 -44q0 -30 18.5 -67t60.5 -80zM730 420
q-42 -43 -60.5 -80t-18.5 -67q0 -27 14 -44t32 -17q24 0 33 28q9 -28 34 -28q18 0 32 16.5t14 44.5q0 30 -19 67t-61 80zM370 420q-42 -43 -60.5 -80t-18.5 -67q0 -27 14 -44t32 -17q24 0 33 28q9 -28 34 -28q18 0 32 16.5t14 44.5q0 30 -19 67t-61 80zM370 980
q42 42 61 79.5t19 67.5q0 28 -14 44.5t-32 16.5q-25 0 -34 -28q-9 28 -33 28q-18 0 -32 -17t-14 -44q0 -30 18.5 -67t60.5 -80zM730 596q42 42 61 79.5t19 67.5q0 28 -14 44.5t-32 16.5q-25 0 -34 -28q-9 28 -33 28q-18 0 -32 -17t-14 -44q0 -30 18.5 -67t60.5 -80zM950 174
v56q0 18 -12.5 28t-29.5 10q-18 0 -30.5 -10t-12.5 -28q0 -23 12 -34t29 -11q12 0 22 5t12 13v-29q-7 -18 -32 -18t-29 17h-10q0 -13 11.5 -20.5t27.5 -7.5t28 8t14 21zM940 230q0 -16 -9.5 -24.5t-22.5 -8.5t-23 9t-10 24q0 13 9.5 20t22.5 7t23 -7t10 -20zM160 1170
q0 16 9.5 24.5t22.5 8.5t23 -9t10 -24q0 -13 -9.5 -19.5t-22.5 -6.5t-23 7t-10 19zM150 1226v-56q0 -18 12.5 -28t30.5 -10q17 0 29.5 10t12.5 28q0 23 -12 34t-29 11q-12 0 -22 -5t-12 -13v29q7 18 32 18t29 -17h10q0 13 -11.5 20.5t-27.5 7.5t-28 -7.5t-14 -21.5zM980 120
h-860v1160h860v-1160zM1000 1300h-900v-1200h900v1200z" />
    <glyph glyph-name="T" unicode="T" 
d="M550 796q42 42 61 79.5t19 67.5q0 28 -14 44.5t-32 16.5q-25 0 -34 -28q-9 28 -33 28q-18 0 -32 -17t-14 -44q0 -30 18.5 -67t60.5 -80zM196 975q23 23 33 44t10 37q0 15 -7.5 24t-16.5 9q-14 0 -19 -15q-5 15 -18 15q-10 0 -17.5 -9t-7.5 -24q0 -36 43 -81zM904 425
q-43 -44 -43 -80q0 -16 7.5 -25t17.5 -9q13 0 18 15q5 -15 19 -15q9 0 16.5 9t7.5 24q0 16 -10 36.5t-33 44.5zM730 596q42 42 61 79.5t19 67.5q0 28 -14 44.5t-32 16.5q-25 0 -34 -28q-9 28 -33 28q-18 0 -32 -17t-14 -44q0 -30 18.5 -67t60.5 -80zM370 980q42 42 61 79.5
t19 67.5q0 28 -14 44.5t-32 16.5q-25 0 -34 -28q-9 28 -33 28q-18 0 -32 -17t-14 -44q0 -30 18.5 -67t60.5 -80zM370 420q-42 -43 -60.5 -80t-18.5 -67q0 -27 14 -44t32 -17q24 0 33 28q9 -28 34 -28q18 0 32 16.5t14 44.5q0 30 -19 67t-61 80zM730 420q-42 -43 -60.5 -80
t-18.5 -67q0 -27 14 -44t32 -17q24 0 33 28q9 -28 34 -28q18 0 32 16.5t14 44.5q0 30 -19 67t-61 80zM730 980q42 42 61 79.5t19 67.5q0 28 -14 44.5t-32 16.5q-25 0 -34 -28q-9 28 -33 28q-18 0 -32 -17t-14 -44q0 -30 18.5 -67t60.5 -80zM370 596q42 42 61 79.5t19 67.5
q0 28 -14 44.5t-32 16.5q-25 0 -34 -28q-9 28 -33 28q-18 0 -32 -17t-14 -44q0 -30 18.5 -67t60.5 -80zM872 161v-15h82v15h-62q24 48 30 108h-15q-4 -31 -11.5 -56t-23.5 -52zM203 1133q4 31 12 56t23 52v15h-82v-15h62q-24 -48 -30 -108h15zM980 120h-860v1160h860v-1160z
M1000 1300h-900v-1200h900v1200z" />
    <glyph glyph-name="U" unicode="U" 
d="M196 975q23 23 33 44t10 37q0 15 -7.5 24t-16.5 9q-14 0 -19 -15q-5 15 -18 15q-10 0 -17.5 -9t-7.5 -24q0 -36 43 -81zM904 425q-43 -44 -43 -80q0 -16 7.5 -25t17.5 -9q13 0 18 15q5 -15 19 -15q9 0 16.5 9t7.5 24q0 16 -10 36.5t-33 44.5zM370 596q42 42 61 79.5
t19 67.5q0 28 -14 44.5t-32 16.5q-25 0 -34 -28q-9 28 -33 28q-18 0 -32 -17t-14 -44q0 -30 18.5 -67t60.5 -80zM730 980q42 42 61 79.5t19 67.5q0 28 -14 44.5t-32 16.5q-25 0 -34 -28q-9 28 -33 28q-18 0 -32 -17t-14 -44q0 -30 18.5 -67t60.5 -80zM730 420
q-42 -43 -60.5 -80t-18.5 -67q0 -27 14 -44t32 -17q24 0 33 28q9 -28 34 -28q18 0 32 16.5t14 44.5q0 30 -19 67t-61 80zM550 604q-42 -43 -60.5 -80t-18.5 -67q0 -27 14 -44t32 -17q24 0 33 28q9 -28 34 -28q18 0 32 16.5t14 44.5q0 30 -19 67t-61 80zM370 980
q42 42 61 79.5t19 67.5q0 28 -14 44.5t-32 16.5q-25 0 -34 -28q-9 28 -33 28q-18 0 -32 -17t-14 -44q0 -30 18.5 -67t60.5 -80zM730 596q42 42 61 79.5t19 67.5q0 28 -14 44.5t-32 16.5q-25 0 -34 -28q-9 28 -33 28q-18 0 -32 -17t-14 -44q0 -30 18.5 -67t60.5 -80zM550 796
q42 42 61 79.5t19 67.5q0 28 -14 44.5t-32 16.5q-25 0 -34 -28q-9 28 -33 28q-18 0 -32 -17t-14 -44q0 -30 18.5 -67t60.5 -80zM370 420q-42 -43 -60.5 -80t-18.5 -67q0 -27 14 -44t32 -17q24 0 33 28q9 -28 34 -28q18 0 32 16.5t14 44.5q0 30 -19 67t-61 80zM195 1143
q-14 1 -20.5 6.5t-6.5 13.5q0 7 5 13l1 1q3 3 7.5 5.5t13.5 3.5q9 0 13.5 -3t7.5 -6l1 -1q5 -6 5 -13q0 -8 -6 -13.5t-21 -6.5zM195 1254q-40 -4 -40 -32q0 -17 19 -29q-19 -12 -19 -29q0 -28 40 -32q40 4 40 32q0 17 -19 29q19 12 19 29q0 28 -40 32zM195 1200
q-9 1 -13.5 3.5t-7.5 5.5l-1 1q-5 6 -5 13q0 8 6.5 13.5t20.5 6.5q14 -1 20.5 -6.5t6.5 -13.5q0 -7 -5 -13l-1 -1q-3 -3 -7.5 -5.5t-13.5 -3.5zM905 214q-9 1 -13.5 3.5t-7.5 5.5l-1 1q-5 6 -5 13q0 8 6.5 13.5t20.5 6.5q14 -1 20.5 -6.5t6.5 -13.5q0 -7 -5 -13l-1 -1
q-3 -3 -7.5 -5.5t-13.5 -3.5zM905 268q-40 -4 -40 -32q0 -17 19 -29q-19 -12 -19 -29q0 -28 40 -32q40 4 40 32q0 17 -19 29q19 12 19 29q0 28 -40 32zM905 157q-14 1 -20.5 6.5t-6.5 13.5q0 7 5 13l1 1q3 3 7.5 5.5t13.5 3.5q9 0 13.5 -3t7.5 -6l1 -1q5 -6 5 -13
q0 -8 -6 -13.5t-21 -6.5zM980 120h-860v1160h860v-1160zM1000 1300h-900v-1200h900v1200z" />
    <glyph glyph-name="V" unicode="V" 
d="M196 975q23 23 33 44t10 37q0 15 -7.5 24t-16.5 9q-14 0 -19 -15q-5 15 -18 15q-10 0 -17.5 -9t-7.5 -24q0 -36 43 -81zM904 425q-43 -44 -43 -80q0 -16 7.5 -25t17.5 -9q13 0 18 15q5 -15 19 -15q9 0 16.5 9t7.5 24q0 16 -10 36.5t-33 44.5zM730 420q-42 -43 -60.5 -80
t-18.5 -67q0 -27 14 -44t32 -17q24 0 33 28q9 -28 34 -28q18 0 32 16.5t14 44.5q0 30 -19 67t-61 80zM370 420q-42 -43 -60.5 -80t-18.5 -67q0 -27 14 -44t32 -17q24 0 33 28q9 -28 34 -28q18 0 32 16.5t14 44.5q0 30 -19 67t-61 80zM370 670q-42 -43 -60.5 -80t-18.5 -67
q0 -27 14 -44t32 -17q24 0 33 28q9 -28 34 -28q18 0 32 16.5t14 44.5q0 30 -19 67t-61 80zM550 860q42 42 61 79.5t19 67.5q0 28 -14 44.5t-32 16.5q-25 0 -34 -28q-9 28 -33 28q-18 0 -32 -17t-14 -44q0 -30 18.5 -67t60.5 -80zM730 730q42 42 61 79.5t19 67.5
q0 28 -14 44.5t-32 16.5q-25 0 -34 -28q-9 28 -33 28q-18 0 -32 -17t-14 -44q0 -30 18.5 -67t60.5 -80zM370 980q42 42 61 79.5t19 67.5q0 28 -14 44.5t-32 16.5q-25 0 -34 -28q-9 28 -33 28q-18 0 -32 -17t-14 -44q0 -30 18.5 -67t60.5 -80zM730 670q-42 -43 -60.5 -80
t-18.5 -67q0 -27 14 -44t32 -17q24 0 33 28q9 -28 34 -28q18 0 32 16.5t14 44.5q0 30 -19 67t-61 80zM730 980q42 42 61 79.5t19 67.5q0 28 -14 44.5t-32 16.5q-25 0 -34 -28q-9 28 -33 28q-18 0 -32 -17t-14 -44q0 -30 18.5 -67t60.5 -80zM370 730q42 42 61 79.5t19 67.5
q0 28 -14 44.5t-32 16.5q-25 0 -34 -28q-9 28 -33 28q-18 0 -32 -17t-14 -44q0 -30 18.5 -67t60.5 -80zM225 1209q0 -16 -9.5 -24.5t-22.5 -8.5t-23 9t-10 24q0 13 9.5 20t22.5 7t23 -7t10 -20zM235 1153v56q0 18 -12.5 28t-29.5 10q-18 0 -30.5 -10t-12.5 -28q0 -23 12 -34
t29 -11q12 0 22 5t12 13v-29q-7 -18 -32 -18t-29 17h-10q0 -13 11.5 -20.5t27.5 -7.5t28 8t14 21zM865 247v-56q0 -18 12.5 -28t30.5 -10q17 0 29.5 10t12.5 28q0 23 -12 34t-29 11q-12 0 -22 -5t-12 -13v29q7 18 32 18t29 -17h10q0 13 -11.5 20.5t-27.5 7.5t-28 -7.5
t-14 -21.5zM875 191q0 16 9.5 24.5t22.5 8.5t23 -9t10 -24q0 -13 -9.5 -19.5t-22.5 -6.5t-23 7t-10 19zM980 120h-860v1160h860v-1160zM1000 1300h-900v-1200h900v1200z" />
    <glyph glyph-name="W" unicode="W" 
d="M196 975q23 23 33 44t10 37q0 15 -7.5 24t-16.5 9q-14 0 -19 -15q-5 15 -18 15q-10 0 -17.5 -9t-7.5 -24q0 -36 43 -81zM904 425q-43 -44 -43 -80q0 -16 7.5 -25t17.5 -9q13 0 18 15q5 -15 19 -15q9 0 16.5 9t7.5 24q0 16 -10 36.5t-33 44.5zM370 730q42 42 61 79.5
t19 67.5q0 28 -14 44.5t-32 16.5q-25 0 -34 -28q-9 28 -33 28q-18 0 -32 -17t-14 -44q0 -30 18.5 -67t60.5 -80zM730 980q42 42 61 79.5t19 67.5q0 28 -14 44.5t-32 16.5q-25 0 -34 -28q-9 28 -33 28q-18 0 -32 -17t-14 -44q0 -30 18.5 -67t60.5 -80zM730 670
q-42 -43 -60.5 -80t-18.5 -67q0 -27 14 -44t32 -17q24 0 33 28q9 -28 34 -28q18 0 32 16.5t14 44.5q0 30 -19 67t-61 80zM370 980q42 42 61 79.5t19 67.5q0 28 -14 44.5t-32 16.5q-25 0 -34 -28q-9 28 -33 28q-18 0 -32 -17t-14 -44q0 -30 18.5 -67t60.5 -80zM730 730
q42 42 61 79.5t19 67.5q0 28 -14 44.5t-32 16.5q-25 0 -34 -28q-9 28 -33 28q-18 0 -32 -17t-14 -44q0 -30 18.5 -67t60.5 -80zM550 860q42 42 61 79.5t19 67.5q0 28 -14 44.5t-32 16.5q-25 0 -34 -28q-9 28 -33 28q-18 0 -32 -17t-14 -44q0 -30 18.5 -67t60.5 -80zM550 540
q-42 -43 -60.5 -80t-18.5 -67q0 -27 14 -44t32 -17q24 0 33 28q9 -28 34 -28q18 0 32 16.5t14 44.5q0 30 -19 67t-61 80zM370 420q-42 -43 -60.5 -80t-18.5 -67q0 -27 14 -44t32 -17q24 0 33 28q9 -28 34 -28q18 0 32 16.5t14 44.5q0 30 -19 67t-61 80zM730 420
q-42 -43 -60.5 -80t-18.5 -67q0 -27 14 -44t32 -17q24 0 33 28q9 -28 34 -28q18 0 32 16.5t14 44.5q0 30 -19 67t-61 80zM370 670q-42 -43 -60.5 -80t-18.5 -67q0 -27 14 -44t32 -17q24 0 33 28q9 -28 34 -28q18 0 32 16.5t14 44.5q0 30 -19 67t-61 80zM953 268h-10v-120h10
v120zM863 182q0 -16 9.5 -25t22.5 -9q12 0 22 9t10 25v52q0 16 -10 25.5t-22 9.5q-13 0 -22.5 -9.5t-9.5 -25.5v-52zM871 187v41q0 29 24 29t24 -29v-41q0 -28 -24 -28t-24 28zM148 1132h10v120h-10v-120zM230 1213v-41q0 -29 -24 -29t-24 29v41q0 29 24 29t24 -29z
M238 1218q0 16 -10 25.5t-22 9.5q-13 0 -22.5 -9.5t-9.5 -25.5v-52q0 -16 9.5 -25t22.5 -9q12 0 22 9t10 25v52zM980 120h-860v1160h860v-1160zM1000 1300h-900v-1200h900v1200z" />
    <glyph glyph-name="X" unicode="X" 
d="M717 540q-42 -43 -60.5 -80t-18.5 -67q0 -27 14 -44t32 -17q24 0 33 28q9 -28 34 -28q18 0 32 16.5t14 44.5q0 30 -19 67t-61 80zM383 860q42 42 61 79.5t19 67.5q0 28 -14 44.5t-32 16.5q-25 0 -34 -28q-9 28 -33 28q-18 0 -32 -17t-14 -44q0 -30 18.5 -67t60.5 -80z
M196 975q23 23 33 44t10 37q0 15 -7.5 24t-16.5 9q-14 0 -19 -15q-5 15 -18 15q-10 0 -17.5 -9t-7.5 -24q0 -36 43 -81zM904 425q-43 -44 -43 -80q0 -16 7.5 -25t17.5 -9q13 0 18 15q5 -15 19 -15q9 0 16.5 9t7.5 24q0 16 -10 36.5t-33 44.5zM172 1164h-17q0 -24 11 -37
t26 -13q13 0 24 10.5t12 28.5v87h20v15h-62v-15h20v-77q0 -25 -15 -25q-7 0 -13 7.5t-6 18.5zM852 160v-15h62v15h-20v77q0 25 15 25q7 0 13 -7t6 -19h17q0 24 -11 37t-26 13q-13 0 -24 -10.5t-12 -28.5v-87h-20zM689 1024l40 62h-250l40 -62q11 8 34.5 12t50.5 4t50.5 -4
t34.5 -12zM687 1033q-10 6 -33.5 9.5t-50.5 3.5q-26 0 -48.5 -3t-31.5 -9l-29 42h220zM682 877q-5 -27 -31.5 -46.5t-59.5 -19.5q-2 0 -7 1h-7q-30 32 -44.5 74t-14.5 81q0 29 7 46q12 8 34.5 12t47.5 4q31 0 43 -5zM687 877l-33 151q-12 7 -48 7q-25 0 -49 -4.5t-37 -13.5
q-7 -19 -7 -50q0 -42 15 -85.5t48 -75.5q45 0 75 18.5t36 52.5zM529 964q5 -6 16 -6q12 0 19 9q-7 9 -17 9q-13 0 -18 -12zM624 964q-5 12 -18 12q-10 0 -17 -9q7 -9 20 -9q10 0 15 6zM578 957h-7l-5 -57h8zM559 870v-7h56v7h-56zM662 1023l-5 6l40 -189h5zM671 1021l-6 5
l40 -183l4 1zM689 1017l-5 6l36 -174l4 1zM676 1021l37 -175l4 2l-36 172zM341 658l7 -5q38 82 96 126t110 47l-12 7q-21 -1 -48 -13.5t-55.5 -35.5t-54 -55.5t-43.5 -70.5zM411 376l-40 -62h250l-40 62q-11 -8 -34.5 -12t-50.5 -4t-50.5 4t-34.5 12zM413 367
q10 -6 33.5 -9.5t50.5 -3.5t49 3t31 9l29 -42h-220zM418 523q6 27 32 46.5t59 19.5h7q6 -1 7 -1q31 -32 45 -73.5t14 -81.5q0 -29 -7 -46q-12 -8 -34.5 -12t-47.5 -4q-31 0 -43 5zM413 523l33 -151q12 -6 48 -6q25 0 49 4t37 13q7 19 7 50q0 42 -15 85.5t-48 75.5
q-45 0 -75 -18.5t-36 -52.5zM571 436q-5 6 -15 6q-13 0 -20 -9q7 -9 17 -9q13 0 18 12zM476 436q5 -12 18 -12q10 0 17 9q-7 9 -19 9q-11 0 -16 -6zM522 443h7l5 57h-8zM541 530v7h-56v-7h56zM438 377l5 -6l-40 189h-5zM429 379l6 -5l-40 183l-4 -1zM411 383l5 -6l-36 174
l-4 -1zM424 379l-37 175l-4 -2l36 -172zM759 742l-7 5q-38 -81 -96 -125.5t-110 -47.5l12 -7q21 1 48 13.5t55.5 35.5t54 55.5t43.5 70.5zM1000 1300h-900v-1200h900v1200zM980 120h-860v1160h860v-1160zM810 1110v-820h-520v820h520zM270 1130v-860h560v860h-560z" />
    <glyph glyph-name="Y" unicode="Y" 
d="M202 1161l14 -12q-8 -8 -21 -8q-16 0 -25 13.5t-9 32.5q0 18 9 31.5t25 13.5t25 -13.5t9 -31.5q0 -16 -6 -28l-13 14zM243 1122l11 12l-19 15q8 16 8 38q0 25 -12.5 44t-35.5 19t-35.5 -19t-12.5 -44q0 -26 12.5 -45t35.5 -19q20 0 32 14zM857 278l-11 -12l19 -15
q-8 -16 -8 -37q0 -26 12.5 -45t35.5 -19t35.5 19t12.5 45q0 25 -12.5 44t-35.5 19q-20 0 -32 -14zM898 239l-14 12q8 8 21 8q16 0 25.5 -13.5t9.5 -31.5q0 -19 -9.5 -32.5t-25.5 -13.5t-25 13.5t-9 32.5q0 15 6 27l13 -14zM383 860q42 42 61 79.5t19 67.5q0 28 -14 44.5
t-32 16.5q-25 0 -34 -28q-9 28 -33 28q-18 0 -32 -17t-14 -44q0 -30 18.5 -67t60.5 -80zM717 540q-42 -43 -60.5 -80t-18.5 -67q0 -27 14 -44t32 -17q24 0 33 28q9 -28 34 -28q18 0 32 16.5t14 44.5q0 30 -19 67t-61 80zM196 975q23 23 33 44t10 37q0 15 -7.5 24t-16.5 9
q-14 0 -19 -15q-5 15 -18 15q-10 0 -17.5 -9t-7.5 -24q0 -36 43 -81zM904 425q-43 -44 -43 -80q0 -16 7.5 -25t17.5 -9q13 0 18 15q5 -15 19 -15q9 0 16.5 9t7.5 24q0 16 -10 36.5t-33 44.5zM565 797l-131 -92l4 -9l133 94zM607 875v-7h30v7h-30zM631 969l-14 -53h7l13 53
h-6zM702 961q-3 36 -23 36q-13 0 -27 -18q2 0 7 1h6q23 0 37 -19zM579 961q14 19 38 19h5q5 -1 7 -1q-14 18 -27 18q-20 0 -23 -36zM713 812l-99 -30q-28 12 -40.5 48t-12.5 91q0 49 10 127q78 41 116 41q27 0 38 -19.5t11 -58.5q0 -32 -10 -119q-8 -69 -12.5 -121
t-4.5 -110q0 -35 2 -68l84 12q-8 78 -15 214q-4 82 -7.5 127t-13.5 81.5t-28.5 56t-50.5 19.5q-45 0 -121 -43q-11 -87 -11 -142q0 -61 13.5 -100.5t44.5 -52.5l107 34v13zM388 592l99 30q29 -12 41 -48t12 -90q0 -49 -10 -128q-78 -41 -116 -41q-27 0 -38 19.5t-11 58.5
q0 30 10 119q8 73 12.5 123t4.5 108q0 35 -2 68l-84 -12q9 -77 15 -214q4 -82 7.5 -127t13.5 -81.5t28.5 -56t50.5 -19.5q45 0 121 43q11 87 11 143q0 60 -13.5 99.5t-44.5 52.5l-107 -34v-13zM522 443q-14 -19 -37 -19h-6q-5 1 -7 1q14 -18 27 -18q20 0 23 36zM399 443
q3 -36 23 -36q13 0 27 18q-2 0 -7 -1h-5q-24 0 -38 19zM470 435l14 53h-7l-13 -53h6zM494 529v7h-30v-7h30zM554 612l131 92l-4 9l-133 -94zM1000 1300h-900v-1200h900v1200zM980 120h-860v1160h860v-1160zM810 1110v-820h-520v820h520zM270 1130v-860h560v860h-560z" />
    <glyph glyph-name="Z" unicode="Z" 
d="M305 631l8 -8q31 85 85 129t102 44q2 0 6 -1h6v10q-22 0 -50 -8.5t-58 -28.5t-56.5 -54t-42.5 -83zM751 763q-2 69 -6.5 112.5t-11 66t-12.5 31t-13 14.5q-1 0 -2 1l-34 12q17 -39 25 -67.5t8 -63.5q0 -52 -22 -123zM596 909h-4l-12 -45h4zM622 840h-58v-6h58v6zM660 932
q-6 -4 -20 -4q-10 0 -17 2.5t-7 8.5l1 2v2v-5q-1 -2 -1 -4q0 -27 19 -27q17 0 25 25zM544 932q8 -25 25 -25q19 0 19 27q0 2 -1 4v5q0 -1 1 -2v-2q0 -6 -7 -8.5t-17 -2.5q-14 0 -20 4zM698 833l-1 8q-36 -29 -71 -42.5t-61 -13.5q-26 3 -37 26t-11 59q0 25 4 52t10 57l-9 -3
q-1 -3 -1 -4q-6 -30 -9.5 -54.5t-3.5 -50.5q0 -34 9.5 -56.5t33.5 -27.5l38 -72l36 80q16 2 33 11.5t40 30.5zM750 1080l-44 -25l-25 31l-25 -31l-35 28l-31 -31l-35 28l-28 -32l-44 26l34 -92q13 12 42.5 18.5t62.5 6.5q31 0 56 -5.5t34 -15.5zM350 320l44 25l25 -31l25 31
l35 -28l31 31l35 -28l28 32l44 -26l-34 92q-13 -12 -42.5 -18t-62.5 -6q-31 0 -56 5t-34 15zM402 567l1 -8q36 29 71.5 42.5t60.5 13.5q26 -3 37 -26t11 -59q0 -25 -4 -52t-10 -57l9 3q1 3 1 4q6 30 9.5 54.5t3.5 50.5q0 34 -9.5 57t-33.5 27l-38 72l-36 -80
q-16 -2 -33 -11.5t-40 -30.5zM556 468q-8 25 -25 25q-19 0 -19 -27q0 -2 1 -4v-5v2l-1 2q0 6 7 8.5t17 2.5q14 0 20 -4zM440 468q6 4 20 4q10 0 17 -2.5t7 -8.5v-2q-1 -1 -1 -2v5q1 2 1 4q0 27 -19 27q-17 0 -25 -25zM478 560h58v6h-58v-6zM504 491h4l12 45h-4zM349 637
q2 -69 6.5 -112.5t11 -66t12.5 -31t13 -14.5q1 0 2 -1l34 -12q-17 39 -25 67.5t-8 63.5q0 53 22 123zM795 769l-8 8q-31 -85 -85 -129t-102 -44q-2 0 -6 1h-6v-10q22 0 50 8.5t58 28.5t56.5 54t42.5 83zM184 1182l47 68h-18l-38 -59v59h-15v-131h15v52l38 -52h18zM869 281
l47 -63l-47 -68h18l38 59v-59h15v131h-15v-52l-38 52h-18zM383 860q42 42 61 79.5t19 67.5q0 28 -14 44.5t-32 16.5q-25 0 -34 -28q-9 28 -33 28q-18 0 -32 -17t-14 -44q0 -30 18.5 -67t60.5 -80zM717 540q-42 -43 -60.5 -80t-18.5 -67q0 -27 14 -44t32 -17q24 0 33 28
q9 -28 34 -28q18 0 32 16.5t14 44.5q0 30 -19 67t-61 80zM196 975q23 23 33 44t10 37q0 15 -7.5 24t-16.5 9q-14 0 -19 -15q-5 15 -18 15q-10 0 -17.5 -9t-7.5 -24q0 -36 43 -81zM904 425q-43 -44 -43 -80q0 -16 7.5 -25t17.5 -9q13 0 18 15q5 -15 19 -15q9 0 16.5 9t7.5 24
q0 16 -10 36.5t-33 44.5zM1000 1300h-900v-1200h900v1200zM980 120h-860v1160h860v-1160zM810 1110v-820h-520v820h520zM270 1130v-860h560v860h-560z" />
    <glyph glyph-name="asciicircum" unicode="^" 
d="M260 490q-28 0 -43.5 18t-15.5 42q0 25 15.5 42.5t43.5 17.5t43.5 -17.5t15.5 -42.5q0 -24 -15.5 -42t-43.5 -18zM840 490q-28 0 -43.5 18t-15.5 42q0 25 15.5 42.5t43.5 17.5t43.5 -17.5t15.5 -42.5q0 -24 -15.5 -42t-43.5 -18zM840 200q-28 0 -44 18t-16 42t16 42
t44 18t44 -18t16 -42t-16 -42t-44 -18zM260 780q-28 0 -44 18t-16 42t16 42t44 18t44 -18t16 -42t-16 -42t-44 -18zM260 200q-28 0 -44 18t-16 42t16 42t44 18t44 -18t16 -42t-16 -42t-44 -18zM840 780q-28 0 -44 18t-16 42t16 42t44 18t44 -18t16 -42t-16 -42t-44 -18z
M1000 1000h-900v-900h900v900z" />
    <glyph glyph-name="a" unicode="a" 
d="M924 405h-36q15 -10 15 -24l-1 -4v-4q-3 12 -16 12q-9 0 -16 -7t-7 -18q0 -12 10 -27t33 -33q23 18 33 33t10 27q0 11 -7 18t-16 7q-13 0 -16 -12q0 13 3 19.5t11 12.5zM212 995q-8 6 -11 12.5t-3 19.5q3 -12 16 -12q9 0 16 7t7 18q0 12 -10 27.5t-33 32.5
q-23 -17 -33 -32.5t-10 -27.5q0 -11 7 -18t16 -7q13 0 16 12v-4l1 -4q0 -14 -15 -24h36zM587 596q-16 12 -23 23t-7 27q0 3 1 6v7q7 -23 31 -23q18 0 32.5 13.5t14.5 35.5q0 24 -20 54.5t-66 65.5q-45 -35 -65.5 -65.5t-20.5 -54.5q0 -22 14.5 -35.5t32.5 -13.5q24 0 31 23
v-7q1 -3 1 -6q0 -16 -6.5 -27t-23.5 -23h74zM927 230h-41l-12 38h-12l36 -118h16l37 118h-13zM923 218l-17 -56l-17 56h34zM215 1170l11 -38h13l-37 118h-16l-36 -118h12l12 38h41zM211 1182h-34l17 56zM980 120h-860v1160h860v-1160zM1000 1300h-900v-1200h900v1200z" />
    <glyph glyph-name="b" unicode="b" 
d="M587 409h-74q16 -12 23 -23.5t7 -27.5q0 -2 -1 -5v-7q-7 23 -31 23q-18 0 -32.5 -13.5t-14.5 -35.5q0 -24 20.5 -54.5t65.5 -65.5q46 35 66 65.5t20 54.5q0 22 -14.5 35.5t-32.5 13.5q-24 0 -31 -23v7q-1 3 -1 5q0 16 7 27.5t23 23.5zM587 991q-16 12 -23 23.5t-7 27.5
q0 2 1 5v7q7 -23 31 -23q18 0 32.5 13.5t14.5 35.5q0 24 -20 54.5t-66 65.5q-45 -35 -65.5 -65.5t-20.5 -54.5q0 -22 14.5 -35.5t32.5 -13.5q24 0 31 23v-7q1 -3 1 -5q0 -16 -6.5 -27.5t-23.5 -23.5h74zM212 995q-8 6 -11 12.5t-3 19.5q3 -12 16 -12q9 0 16 7t7 18
q0 12 -10 27.5t-33 32.5q-23 -17 -33 -32.5t-10 -27.5q0 -11 7 -18t16 -7q13 0 16 12v-4l1 -4q0 -14 -15 -24h36zM924 405h-36q15 -10 15 -24l-1 -4v-4q-3 12 -16 12q-9 0 -16 -7t-7 -18q0 -12 10 -27t33 -33q23 18 33 33t10 27q0 11 -7 18t-16 7q-13 0 -16 -12q0 13 3 19.5
t11 12.5zM866 268v-10h69q-25 -15 -43 -38.5t-18 -42.5q0 -28 40 -31q20 2 28 11.5t8 23.5h-13q-1 -10 -5.5 -16.5t-17.5 -7.5q-26 3 -26 20q0 15 19 37.5t43 40.5v13h-84zM163 1219q1 10 5.5 16.5t17.5 7.5q26 -3 26 -20q0 -15 -19 -37.5t-43 -40.5v-13h84v10h-69
q25 16 43 39t18 42q0 28 -40 31q-19 -2 -27.5 -11.5t-8.5 -23.5h13zM980 120h-860v1160h860v-1160zM1000 1300h-900v-1200h900v1200z" />
    <glyph glyph-name="c" unicode="c" 
d="M587 596q-16 12 -23 23t-7 27q0 3 1 6v7q7 -23 31 -23q18 0 32.5 13.5t14.5 35.5q0 24 -20 54.5t-66 65.5q-45 -35 -65.5 -65.5t-20.5 -54.5q0 -22 14.5 -35.5t32.5 -13.5q24 0 31 23v-7q1 -3 1 -6q0 -16 -6.5 -27t-23.5 -23h74zM212 995q-8 6 -11 12.5t-3 19.5
q3 -12 16 -12q9 0 16 7t7 18q0 12 -10 27.5t-33 32.5q-23 -17 -33 -32.5t-10 -27.5q0 -11 7 -18t16 -7q13 0 16 12v-4l1 -4q0 -14 -15 -24h36zM924 405h-36q15 -10 15 -24l-1 -4v-4q-3 12 -16 12q-9 0 -16 -7t-7 -18q0 -12 10 -27t33 -33q23 18 33 33t10 27q0 11 -7 18
t-16 7q-13 0 -16 -12q0 13 3 19.5t11 12.5zM587 991q-16 12 -23 23.5t-7 27.5q0 2 1 5v7q7 -23 31 -23q18 0 32.5 13.5t14.5 35.5q0 24 -20 54.5t-66 65.5q-45 -35 -65.5 -65.5t-20.5 -54.5q0 -22 14.5 -35.5t32.5 -13.5q24 0 31 23v-7q1 -3 1 -5q0 -16 -6.5 -27.5
t-23.5 -23.5h74zM587 409h-74q16 -12 23 -23.5t7 -27.5q0 -2 -1 -5v-7q-7 23 -31 23q-18 0 -32.5 -13.5t-14.5 -35.5q0 -24 20.5 -54.5t65.5 -65.5q46 35 66 65.5t20 54.5q0 22 -14.5 35.5t-32.5 13.5q-24 0 -31 -23v7q-1 3 -1 5q0 16 7 27.5t23 23.5zM919 207v7h-20
q-7 1 -14 9l-1 1q-5 6 -5 13q0 8 6.5 13.5t20.5 6.5q13 -1 17.5 -7.5t5.5 -16.5h13q0 14 -8 23.5t-28 11.5q-40 -4 -40 -32q0 -17 19 -29q-19 -12 -19 -29q0 -28 40 -32q20 2 28 11.5t8 23.5h-13q-1 -10 -5.5 -16.5t-17.5 -7.5q-14 1 -20.5 6.5t-6.5 13.5q0 7 5 13l1 1
q7 8 14 9h20v7zM181 1193v-7h20q7 -1 14 -9l1 -1q5 -6 5 -13q0 -8 -6 -13.5t-21 -6.5q-13 1 -17.5 7.5t-5.5 16.5h-13q0 -14 8.5 -23.5t27.5 -11.5q40 4 40 32q0 17 -19 29q19 12 19 29q0 28 -40 32q-19 -2 -27.5 -11.5t-8.5 -23.5h13q1 10 5.5 16.5t17.5 7.5
q14 -1 20.5 -6.5t6.5 -13.5q0 -7 -5 -13l-1 -1q-7 -8 -14 -9h-20v-7zM980 120h-860v1160h860v-1160zM1000 1300h-900v-1200h900v1200z" />
    <glyph glyph-name="d" unicode="d" 
d="M767 991q-16 12 -23 23.5t-7 27.5q0 2 1 5v7q7 -23 31 -23q18 0 32.5 13.5t14.5 35.5q0 24 -20 54.5t-66 65.5q-45 -35 -65.5 -65.5t-20.5 -54.5q0 -22 14.5 -35.5t32.5 -13.5q24 0 31 23v-7q1 -3 1 -5q0 -16 -6.5 -27.5t-23.5 -23.5h74zM767 409h-74q16 -12 23 -23.5
t7 -27.5q0 -2 -1 -5v-7q-7 23 -31 23q-18 0 -32.5 -13.5t-14.5 -35.5q0 -24 20.5 -54.5t65.5 -65.5q46 35 66 65.5t20 54.5q0 22 -14.5 35.5t-32.5 13.5q-24 0 -31 -23v7q-1 3 -1 5q0 16 7 27.5t23 23.5zM407 991q-16 12 -23 23.5t-7 27.5q0 2 1 5v7q7 -23 31 -23
q18 0 32.5 13.5t14.5 35.5q0 24 -20 54.5t-66 65.5q-45 -35 -65.5 -65.5t-20.5 -54.5q0 -22 14.5 -35.5t32.5 -13.5q24 0 31 23v-7q1 -3 1 -5q0 -16 -6.5 -27.5t-23.5 -23.5h74zM407 409h-74q16 -12 23 -23.5t7 -27.5q0 -2 -1 -5v-7q-7 23 -31 23q-18 0 -32.5 -13.5
t-14.5 -35.5q0 -24 20.5 -54.5t65.5 -65.5q46 35 66 65.5t20 54.5q0 22 -14.5 35.5t-32.5 13.5q-24 0 -31 -23v7q-1 3 -1 5q0 16 7 27.5t23 23.5zM212 995q-8 6 -11 12.5t-3 19.5q3 -12 16 -12q9 0 16 7t7 18q0 12 -10 27.5t-33 32.5q-23 -17 -33 -32.5t-10 -27.5
q0 -11 7 -18t16 -7q13 0 16 12v-4l1 -4q0 -14 -15 -24h36zM924 405h-36q15 -10 15 -24l-1 -4v-4q-3 12 -16 12q-9 0 -16 -7t-7 -18q0 -12 10 -27t33 -33q23 18 33 33t10 27q0 11 -7 18t-16 7q-13 0 -16 -12q0 13 3 19.5t11 12.5zM865 237v-10h15v-81h10l60 81v10h-60v31h-10
v-31h-15zM936 227l-46 -63v63h46zM210 1254l-60 -81v-10h60v-31h10v31h15v10h-15v81h-10zM164 1173l46 63v-63h-46zM980 120h-860v1160h860v-1160zM1000 1300h-900v-1200h900v1200z" />
    <glyph glyph-name="e" unicode="e" 
d="M587 596q-16 12 -23 23t-7 27q0 3 1 6v7q7 -23 31 -23q18 0 32.5 13.5t14.5 35.5q0 24 -20 54.5t-66 65.5q-45 -35 -65.5 -65.5t-20.5 -54.5q0 -22 14.5 -35.5t32.5 -13.5q24 0 31 23v-7q1 -3 1 -6q0 -16 -6.5 -27t-23.5 -23h74zM407 409h-74q16 -12 23 -23.5t7 -27.5
q0 -2 -1 -5v-7q-7 23 -31 23q-18 0 -32.5 -13.5t-14.5 -35.5q0 -24 20.5 -54.5t65.5 -65.5q46 35 66 65.5t20 54.5q0 22 -14.5 35.5t-32.5 13.5q-24 0 -31 -23v7q-1 3 -1 5q0 16 7 27.5t23 23.5zM407 991q-16 12 -23 23.5t-7 27.5q0 2 1 5v7q7 -23 31 -23q18 0 32.5 13.5
t14.5 35.5q0 24 -20 54.5t-66 65.5q-45 -35 -65.5 -65.5t-20.5 -54.5q0 -22 14.5 -35.5t32.5 -13.5q24 0 31 23v-7q1 -3 1 -5q0 -16 -6.5 -27.5t-23.5 -23.5h74zM767 409h-74q16 -12 23 -23.5t7 -27.5q0 -2 -1 -5v-7q-7 23 -31 23q-18 0 -32.5 -13.5t-14.5 -35.5
q0 -24 20.5 -54.5t65.5 -65.5q46 35 66 65.5t20 54.5q0 22 -14.5 35.5t-32.5 13.5q-24 0 -31 -23v7q-1 3 -1 5q0 16 7 27.5t23 23.5zM767 991q-16 12 -23 23.5t-7 27.5q0 2 1 5v7q7 -23 31 -23q18 0 32.5 13.5t14.5 35.5q0 24 -20 54.5t-66 65.5q-45 -35 -65.5 -65.5
t-20.5 -54.5q0 -22 14.5 -35.5t32.5 -13.5q24 0 31 23v-7q1 -3 1 -5q0 -16 -6.5 -27.5t-23.5 -23.5h74zM924 405h-36q15 -10 15 -24l-1 -4v-4q-3 12 -16 12q-9 0 -16 -7t-7 -18q0 -12 10 -27t33 -33q23 18 33 33t10 27q0 11 -7 18t-16 7q-13 0 -16 -12q0 13 3 19.5t11 12.5z
M212 995q-8 6 -11 12.5t-3 19.5q3 -12 16 -12q9 0 16 7t7 18q0 12 -10 27.5t-33 32.5q-23 -17 -33 -32.5t-10 -27.5q0 -11 7 -18t16 -7q13 0 16 12v-4l1 -4q0 -14 -15 -24h36zM950 250v10q-23 8 -41 8q-23 0 -33.5 -12t-10.5 -29q0 -20 15 -31.5t35 -11.5q15 0 25 7v-35h-65
v-10h75v60q-21 -11 -38 -11q-31 0 -37 32q3 30 35 30q16 0 40 -7zM150 1150v-10q23 -8 41 -8q23 0 33.5 12.5t10.5 28.5q0 20 -15 31.5t-35 11.5q-15 0 -25 -7v35h65v10h-75v-60q21 11 38 11q31 0 37 -32q-3 -30 -35 -30q-16 0 -40 7zM980 120h-860v1160h860v-1160z
M1000 1300h-900v-1200h900v1200z" />
    <glyph glyph-name="f" unicode="f" 
d="M767 596q-16 12 -23 23t-7 27q0 3 1 6v7q7 -23 31 -23q18 0 32.5 13.5t14.5 35.5q0 24 -20 54.5t-66 65.5q-45 -35 -65.5 -65.5t-20.5 -54.5q0 -22 14.5 -35.5t32.5 -13.5q24 0 31 23v-7q1 -3 1 -6q0 -16 -6.5 -27t-23.5 -23h74zM767 991q-16 12 -23 23.5t-7 27.5
q0 2 1 5v7q7 -23 31 -23q18 0 32.5 13.5t14.5 35.5q0 24 -20 54.5t-66 65.5q-45 -35 -65.5 -65.5t-20.5 -54.5q0 -22 14.5 -35.5t32.5 -13.5q24 0 31 23v-7q1 -3 1 -5q0 -16 -6.5 -27.5t-23.5 -23.5h74zM767 409h-74q16 -12 23 -23.5t7 -27.5q0 -2 -1 -5v-7q-7 23 -31 23
q-18 0 -32.5 -13.5t-14.5 -35.5q0 -24 20.5 -54.5t65.5 -65.5q46 35 66 65.5t20 54.5q0 22 -14.5 35.5t-32.5 13.5q-24 0 -31 -23v7q-1 3 -1 5q0 16 7 27.5t23 23.5zM407 991q-16 12 -23 23.5t-7 27.5q0 2 1 5v7q7 -23 31 -23q18 0 32.5 13.5t14.5 35.5q0 24 -20 54.5
t-66 65.5q-45 -35 -65.5 -65.5t-20.5 -54.5q0 -22 14.5 -35.5t32.5 -13.5q24 0 31 23v-7q1 -3 1 -5q0 -16 -6.5 -27.5t-23.5 -23.5h74zM407 409h-74q16 -12 23 -23.5t7 -27.5q0 -2 -1 -5v-7q-7 23 -31 23q-18 0 -32.5 -13.5t-14.5 -35.5q0 -24 20.5 -54.5t65.5 -65.5
q46 35 66 65.5t20 54.5q0 22 -14.5 35.5t-32.5 13.5q-24 0 -31 -23v7q-1 3 -1 5q0 16 7 27.5t23 23.5zM407 596q-16 12 -23 23t-7 27q0 3 1 6v7q7 -23 31 -23q18 0 32.5 13.5t14.5 35.5q0 24 -20 54.5t-66 65.5q-45 -35 -65.5 -65.5t-20.5 -54.5q0 -22 14.5 -35.5
t32.5 -13.5q24 0 31 23v-7q1 -3 1 -6q0 -16 -6.5 -27t-23.5 -23h74zM924 405h-36q15 -10 15 -24l-1 -4v-4q-3 12 -16 12q-9 0 -16 -7t-7 -18q0 -12 10 -27t33 -33q23 18 33 33t10 27q0 11 -7 18t-16 7q-13 0 -16 -12q0 13 3 19.5t11 12.5zM212 995q-8 6 -11 12.5t-3 19.5
q3 -12 16 -12q9 0 16 7t7 18q0 12 -10 27.5t-33 32.5q-23 -17 -33 -32.5t-10 -27.5q0 -11 7 -18t16 -7q13 0 16 12v-4l1 -4q0 -14 -15 -24h36zM950 174v56q0 18 -12.5 28t-29.5 10q-18 0 -30.5 -10t-12.5 -28q0 -23 12 -34t29 -11q12 0 22 5t12 13v-29q-7 -18 -32 -18
t-29 17h-10q0 -13 11.5 -20.5t27.5 -7.5t28 8t14 21zM940 230q0 -16 -9.5 -24.5t-22.5 -8.5t-23 9t-10 24q0 13 9.5 20t22.5 7t23 -7t10 -20zM160 1170q0 16 9.5 24.5t22.5 8.5t23 -9t10 -24q0 -13 -9.5 -19.5t-22.5 -6.5t-23 7t-10 19zM150 1226v-56q0 -18 12.5 -28
t30.5 -10q17 0 29.5 10t12.5 28q0 23 -12 34t-29 11q-12 0 -22 -5t-12 -13v29q7 18 32 18t29 -17h10q0 13 -11.5 20.5t-27.5 7.5t-28 -7.5t-14 -21.5zM980 120h-860v1160h860v-1160zM1000 1300h-900v-1200h900v1200z" />
    <glyph glyph-name="g" unicode="g" 
d="M587 791q-16 12 -23 23.5t-7 27.5q0 2 1 5v7q7 -23 31 -23q18 0 32.5 13.5t14.5 35.5q0 24 -20 54.5t-66 65.5q-45 -35 -65.5 -65.5t-20.5 -54.5q0 -22 14.5 -35.5t32.5 -13.5q24 0 31 23v-7q1 -3 1 -5q0 -16 -6.5 -27.5t-23.5 -23.5h74zM407 596q-16 12 -23 23t-7 27
q0 3 1 6v7q7 -23 31 -23q18 0 32.5 13.5t14.5 35.5q0 24 -20 54.5t-66 65.5q-45 -35 -65.5 -65.5t-20.5 -54.5q0 -22 14.5 -35.5t32.5 -13.5q24 0 31 23v-7q1 -3 1 -6q0 -16 -6.5 -27t-23.5 -23h74zM407 409h-74q16 -12 23 -23.5t7 -27.5q0 -2 -1 -5v-7q-7 23 -31 23
q-18 0 -32.5 -13.5t-14.5 -35.5q0 -24 20.5 -54.5t65.5 -65.5q46 35 66 65.5t20 54.5q0 22 -14.5 35.5t-32.5 13.5q-24 0 -31 -23v7q-1 3 -1 5q0 16 7 27.5t23 23.5zM407 991q-16 12 -23 23.5t-7 27.5q0 2 1 5v7q7 -23 31 -23q18 0 32.5 13.5t14.5 35.5q0 24 -20 54.5
t-66 65.5q-45 -35 -65.5 -65.5t-20.5 -54.5q0 -22 14.5 -35.5t32.5 -13.5q24 0 31 23v-7q1 -3 1 -5q0 -16 -6.5 -27.5t-23.5 -23.5h74zM767 409h-74q16 -12 23 -23.5t7 -27.5q0 -2 -1 -5v-7q-7 23 -31 23q-18 0 -32.5 -13.5t-14.5 -35.5q0 -24 20.5 -54.5t65.5 -65.5
q46 35 66 65.5t20 54.5q0 22 -14.5 35.5t-32.5 13.5q-24 0 -31 -23v7q-1 3 -1 5q0 16 7 27.5t23 23.5zM767 991q-16 12 -23 23.5t-7 27.5q0 2 1 5v7q7 -23 31 -23q18 0 32.5 13.5t14.5 35.5q0 24 -20 54.5t-66 65.5q-45 -35 -65.5 -65.5t-20.5 -54.5q0 -22 14.5 -35.5
t32.5 -13.5q24 0 31 23v-7q1 -3 1 -5q0 -16 -6.5 -27.5t-23.5 -23.5h74zM767 596q-16 12 -23 23t-7 27q0 3 1 6v7q7 -23 31 -23q18 0 32.5 13.5t14.5 35.5q0 24 -20 54.5t-66 65.5q-45 -35 -65.5 -65.5t-20.5 -54.5q0 -22 14.5 -35.5t32.5 -13.5q24 0 31 23v-7q1 -3 1 -6
q0 -16 -6.5 -27t-23.5 -23h74zM924 405h-36q15 -10 15 -24l-1 -4v-4q-3 12 -16 12q-9 0 -16 -7t-7 -18q0 -12 10 -27t33 -33q23 18 33 33t10 27q0 11 -7 18t-16 7q-13 0 -16 -12q0 13 3 19.5t11 12.5zM212 995q-8 6 -11 12.5t-3 19.5q3 -12 16 -12q9 0 16 7t7 18
q0 12 -10 27.5t-33 32.5q-23 -17 -33 -32.5t-10 -27.5q0 -11 7 -18t16 -7q13 0 16 12v-4l1 -4q0 -14 -15 -24h36zM867 161v-15h82v15h-62q24 48 30 108h-15q-4 -31 -11.5 -56t-23.5 -52zM203 1133q4 31 12 56t23 52v15h-82v-15h62q-24 -48 -30 -108h15zM980 120h-860v1160
h860v-1160zM1000 1300h-900v-1200h900v1200z" />
    <glyph glyph-name="h" unicode="h" 
d="M407 409h-74q16 -12 23 -23.5t7 -27.5q0 -2 -1 -5v-7q-7 23 -31 23q-18 0 -32.5 -13.5t-14.5 -35.5q0 -24 20.5 -54.5t65.5 -65.5q46 35 66 65.5t20 54.5q0 22 -14.5 35.5t-32.5 13.5q-24 0 -31 -23v7q-1 3 -1 5q0 16 7 27.5t23 23.5zM767 596q-16 12 -23 23t-7 27
q0 3 1 6v7q7 -23 31 -23q18 0 32.5 13.5t14.5 35.5q0 24 -20 54.5t-66 65.5q-45 -35 -65.5 -65.5t-20.5 -54.5q0 -22 14.5 -35.5t32.5 -13.5q24 0 31 23v-7q1 -3 1 -6q0 -16 -6.5 -27t-23.5 -23h74zM767 991q-16 12 -23 23.5t-7 27.5q0 2 1 5v7q7 -23 31 -23q18 0 32.5 13.5
t14.5 35.5q0 24 -20 54.5t-66 65.5q-45 -35 -65.5 -65.5t-20.5 -54.5q0 -22 14.5 -35.5t32.5 -13.5q24 0 31 23v-7q1 -3 1 -5q0 -16 -6.5 -27.5t-23.5 -23.5h74zM767 409h-74q16 -12 23 -23.5t7 -27.5q0 -2 -1 -5v-7q-7 23 -31 23q-18 0 -32.5 -13.5t-14.5 -35.5
q0 -24 20.5 -54.5t65.5 -65.5q46 35 66 65.5t20 54.5q0 22 -14.5 35.5t-32.5 13.5q-24 0 -31 -23v7q-1 3 -1 5q0 16 7 27.5t23 23.5zM407 991q-16 12 -23 23.5t-7 27.5q0 2 1 5v7q7 -23 31 -23q18 0 32.5 13.5t14.5 35.5q0 24 -20 54.5t-66 65.5q-45 -35 -65.5 -65.5
t-20.5 -54.5q0 -22 14.5 -35.5t32.5 -13.5q24 0 31 23v-7q1 -3 1 -5q0 -16 -6.5 -27.5t-23.5 -23.5h74zM587 609h-74q16 -12 23 -23.5t7 -27.5q0 -2 -1 -5v-7q-7 23 -31 23q-18 0 -32.5 -13.5t-14.5 -35.5q0 -24 20.5 -54.5t65.5 -65.5q46 35 66 65.5t20 54.5
q0 22 -14.5 35.5t-32.5 13.5q-24 0 -31 -23v7q-1 3 -1 5q0 16 7 27.5t23 23.5zM407 596q-16 12 -23 23t-7 27q0 3 1 6v7q7 -23 31 -23q18 0 32.5 13.5t14.5 35.5q0 24 -20 54.5t-66 65.5q-45 -35 -65.5 -65.5t-20.5 -54.5q0 -22 14.5 -35.5t32.5 -13.5q24 0 31 23v-7
q1 -3 1 -6q0 -16 -6.5 -27t-23.5 -23h74zM587 791q-16 12 -23 23.5t-7 27.5q0 2 1 5v7q7 -23 31 -23q18 0 32.5 13.5t14.5 35.5q0 24 -20 54.5t-66 65.5q-45 -35 -65.5 -65.5t-20.5 -54.5q0 -22 14.5 -35.5t32.5 -13.5q24 0 31 23v-7q1 -3 1 -5q0 -16 -6.5 -27.5
t-23.5 -23.5h74zM924 405h-36q15 -10 15 -24l-1 -4v-4q-3 12 -16 12q-9 0 -16 -7t-7 -18q0 -12 10 -27t33 -33q23 18 33 33t10 27q0 11 -7 18t-16 7q-13 0 -16 -12q0 13 3 19.5t11 12.5zM212 995q-8 6 -11 12.5t-3 19.5q3 -12 16 -12q9 0 16 7t7 18q0 12 -10 27.5t-33 32.5
q-23 -17 -33 -32.5t-10 -27.5q0 -11 7 -18t16 -7q13 0 16 12v-4l1 -4q0 -14 -15 -24h36zM194 1143q-14 1 -20.5 6.5t-6.5 13.5q0 7 5 13l1 1q3 3 7.5 5.5t13.5 3.5q9 0 13.5 -3t7.5 -6l1 -1q5 -6 5 -13q0 -8 -6 -13.5t-21 -6.5zM194 1254q-40 -4 -40 -32q0 -17 19 -29
q-19 -12 -19 -29q0 -28 40 -32q40 4 40 32q0 17 -19 29q19 12 19 29q0 28 -40 32zM194 1200q-9 1 -13.5 3.5t-7.5 5.5l-1 1q-5 6 -5 13q0 8 6.5 13.5t20.5 6.5q14 -1 20.5 -6.5t6.5 -13.5q0 -7 -5 -13l-1 -1q-3 -3 -7.5 -5.5t-13.5 -3.5zM906 214q-9 1 -13.5 3.5t-7.5 5.5
l-1 1q-5 6 -5 13q0 8 6.5 13.5t20.5 6.5q14 -1 20.5 -6.5t6.5 -13.5q0 -7 -5 -13l-1 -1q-3 -3 -7.5 -5.5t-13.5 -3.5zM906 268q-40 -4 -40 -32q0 -17 19 -29q-19 -12 -19 -29q0 -28 40 -32q40 4 40 32q0 17 -19 29q19 12 19 29q0 28 -40 32zM906 157q-14 1 -20.5 6.5
t-6.5 13.5q0 7 5 13l1 1q3 3 7.5 5.5t13.5 3.5q9 0 13.5 -3t7.5 -6l1 -1q5 -6 5 -13q0 -8 -6 -13.5t-21 -6.5zM980 120h-860v1160h860v-1160zM1000 1300h-900v-1200h900v1200z" />
    <glyph glyph-name="i" unicode="i" 
d="M407 679h-74q16 -12 23 -23.5t7 -27.5q0 -2 -1 -5v-7q-7 23 -31 23q-18 0 -32.5 -13.5t-14.5 -35.5q0 -24 20.5 -54.5t65.5 -65.5q46 35 66 65.5t20 54.5q0 22 -14.5 35.5t-32.5 13.5q-24 0 -31 -23v7q-1 3 -1 5q0 16 7 27.5t23 23.5zM767 721q-16 12 -23 23.5t-7 27.5
q0 2 1 5v7q7 -23 31 -23q18 0 32.5 13.5t14.5 35.5q0 24 -20 54.5t-66 65.5q-45 -35 -65.5 -65.5t-20.5 -54.5q0 -22 14.5 -35.5t32.5 -13.5q24 0 31 23v-7q1 -3 1 -5q0 -16 -6.5 -27.5t-23.5 -23.5h74zM767 991q-16 12 -23 23.5t-7 27.5q0 2 1 5v7q7 -23 31 -23
q18 0 32.5 13.5t14.5 35.5q0 24 -20 54.5t-66 65.5q-45 -35 -65.5 -65.5t-20.5 -54.5q0 -22 14.5 -35.5t32.5 -13.5q24 0 31 23v-7q1 -3 1 -5q0 -16 -6.5 -27.5t-23.5 -23.5h74zM767 679h-74q16 -12 23 -23.5t7 -27.5q0 -2 -1 -5v-7q-7 23 -31 23q-18 0 -32.5 -13.5
t-14.5 -35.5q0 -24 20.5 -54.5t65.5 -65.5q46 35 66 65.5t20 54.5q0 22 -14.5 35.5t-32.5 13.5q-24 0 -31 -23v7q-1 3 -1 5q0 16 7 27.5t23 23.5zM407 991q-16 12 -23 23.5t-7 27.5q0 2 1 5v7q7 -23 31 -23q18 0 32.5 13.5t14.5 35.5q0 24 -20 54.5t-66 65.5
q-45 -35 -65.5 -65.5t-20.5 -54.5q0 -22 14.5 -35.5t32.5 -13.5q24 0 31 23v-7q1 -3 1 -5q0 -16 -6.5 -27.5t-23.5 -23.5h74zM407 721q-16 12 -23 23.5t-7 27.5q0 2 1 5v7q7 -23 31 -23q18 0 32.5 13.5t14.5 35.5q0 24 -20 54.5t-66 65.5q-45 -35 -65.5 -65.5t-20.5 -54.5
q0 -22 14.5 -35.5t32.5 -13.5q24 0 31 23v-7q1 -3 1 -5q0 -16 -6.5 -27.5t-23.5 -23.5h74zM587 852q-16 12 -23 23t-7 27q0 3 1 6v7q7 -23 31 -23q18 0 32.5 13.5t14.5 35.5q0 24 -20 54.5t-66 65.5q-45 -35 -65.5 -65.5t-20.5 -54.5q0 -22 14.5 -35.5t32.5 -13.5
q24 0 31 23v-7q1 -3 1 -6q0 -16 -6.5 -27t-23.5 -23h74zM767 409h-74q16 -12 23 -23.5t7 -27.5q0 -2 -1 -5v-7q-7 23 -31 23q-18 0 -32.5 -13.5t-14.5 -35.5q0 -24 20.5 -54.5t65.5 -65.5q46 35 66 65.5t20 54.5q0 22 -14.5 35.5t-32.5 13.5q-24 0 -31 -23v7q-1 3 -1 5
q0 16 7 27.5t23 23.5zM407 409h-74q16 -12 23 -23.5t7 -27.5q0 -2 -1 -5v-7q-7 23 -31 23q-18 0 -32.5 -13.5t-14.5 -35.5q0 -24 20.5 -54.5t65.5 -65.5q46 35 66 65.5t20 54.5q0 22 -14.5 35.5t-32.5 13.5q-24 0 -31 -23v7q-1 3 -1 5q0 16 7 27.5t23 23.5zM924 405h-36
q15 -10 15 -24l-1 -4v-4q-3 12 -16 12q-9 0 -16 -7t-7 -18q0 -12 10 -27t33 -33q23 18 33 33t10 27q0 11 -7 18t-16 7q-13 0 -16 -12q0 13 3 19.5t11 12.5zM212 995q-8 6 -11 12.5t-3 19.5q3 -12 16 -12q9 0 16 7t7 18q0 12 -10 27.5t-33 32.5q-23 -17 -33 -32.5t-10 -27.5
q0 -11 7 -18t16 -7q13 0 16 12v-4l1 -4q0 -14 -15 -24h36zM225 1209q0 -16 -9.5 -24.5t-22.5 -8.5t-23 9t-10 24q0 13 9.5 20t22.5 7t23 -7t10 -20zM235 1153v56q0 18 -12.5 28t-29.5 10q-18 0 -30.5 -10t-12.5 -28q0 -23 12 -34t29 -11q12 0 22 5t12 13v-29q-7 -18 -32 -18
t-29 17h-10q0 -13 11.5 -20.5t27.5 -7.5t28 8t14 21zM865 247v-56q0 -18 12.5 -28t30.5 -10q17 0 29.5 10t12.5 28q0 23 -12 34t-29 11q-12 0 -22 -5t-12 -13v29q7 18 32 18t29 -17h10q0 13 -11.5 20.5t-27.5 7.5t-28 -7.5t-14 -21.5zM875 191q0 16 9.5 24.5t22.5 8.5t23 -9
t10 -24q0 -13 -9.5 -19.5t-22.5 -6.5t-23 7t-10 19zM980 120h-860v1160h860v-1160zM1000 1300h-900v-1200h900v1200z" />
    <glyph glyph-name="j" unicode="j" 
d="M407 679h-74q16 -12 23 -23.5t7 -27.5q0 -2 -1 -5v-7q-7 23 -31 23q-18 0 -32.5 -13.5t-14.5 -35.5q0 -24 20.5 -54.5t65.5 -65.5q46 35 66 65.5t20 54.5q0 22 -14.5 35.5t-32.5 13.5q-24 0 -31 -23v7q-1 3 -1 5q0 16 7 27.5t23 23.5zM767 721q-16 12 -23 23.5t-7 27.5
q0 2 1 5v7q7 -23 31 -23q18 0 32.5 13.5t14.5 35.5q0 24 -20 54.5t-66 65.5q-45 -35 -65.5 -65.5t-20.5 -54.5q0 -22 14.5 -35.5t32.5 -13.5q24 0 31 23v-7q1 -3 1 -5q0 -16 -6.5 -27.5t-23.5 -23.5h74zM767 991q-16 12 -23 23.5t-7 27.5q0 2 1 5v7q7 -23 31 -23
q18 0 32.5 13.5t14.5 35.5q0 24 -20 54.5t-66 65.5q-45 -35 -65.5 -65.5t-20.5 -54.5q0 -22 14.5 -35.5t32.5 -13.5q24 0 31 23v-7q1 -3 1 -5q0 -16 -6.5 -27.5t-23.5 -23.5h74zM767 679h-74q16 -12 23 -23.5t7 -27.5q0 -2 -1 -5v-7q-7 23 -31 23q-18 0 -32.5 -13.5
t-14.5 -35.5q0 -24 20.5 -54.5t65.5 -65.5q46 35 66 65.5t20 54.5q0 22 -14.5 35.5t-32.5 13.5q-24 0 -31 -23v7q-1 3 -1 5q0 16 7 27.5t23 23.5zM407 991q-16 12 -23 23.5t-7 27.5q0 2 1 5v7q7 -23 31 -23q18 0 32.5 13.5t14.5 35.5q0 24 -20 54.5t-66 65.5
q-45 -35 -65.5 -65.5t-20.5 -54.5q0 -22 14.5 -35.5t32.5 -13.5q24 0 31 23v-7q1 -3 1 -5q0 -16 -6.5 -27.5t-23.5 -23.5h74zM587 549h-74q16 -12 23 -23.5t7 -27.5q0 -2 -1 -5v-7q-7 23 -31 23q-18 0 -32.5 -13.5t-14.5 -35.5q0 -24 20.5 -54.5t65.5 -65.5q46 35 66 65.5
t20 54.5q0 22 -14.5 35.5t-32.5 13.5q-24 0 -31 -23v7q-1 3 -1 5q0 16 7 27.5t23 23.5zM407 721q-16 12 -23 23.5t-7 27.5q0 2 1 5v7q7 -23 31 -23q18 0 32.5 13.5t14.5 35.5q0 24 -20 54.5t-66 65.5q-45 -35 -65.5 -65.5t-20.5 -54.5q0 -22 14.5 -35.5t32.5 -13.5
q24 0 31 23v-7q1 -3 1 -5q0 -16 -6.5 -27.5t-23.5 -23.5h74zM587 852q-16 12 -23 23t-7 27q0 3 1 6v7q7 -23 31 -23q18 0 32.5 13.5t14.5 35.5q0 24 -20 54.5t-66 65.5q-45 -35 -65.5 -65.5t-20.5 -54.5q0 -22 14.5 -35.5t32.5 -13.5q24 0 31 23v-7q1 -3 1 -6
q0 -16 -6.5 -27t-23.5 -23h74zM767 409h-74q16 -12 23 -23.5t7 -27.5q0 -2 -1 -5v-7q-7 23 -31 23q-18 0 -32.5 -13.5t-14.5 -35.5q0 -24 20.5 -54.5t65.5 -65.5q46 35 66 65.5t20 54.5q0 22 -14.5 35.5t-32.5 13.5q-24 0 -31 -23v7q-1 3 -1 5q0 16 7 27.5t23 23.5zM407 409
h-74q16 -12 23 -23.5t7 -27.5q0 -2 -1 -5v-7q-7 23 -31 23q-18 0 -32.5 -13.5t-14.5 -35.5q0 -24 20.5 -54.5t65.5 -65.5q46 35 66 65.5t20 54.5q0 22 -14.5 35.5t-32.5 13.5q-24 0 -31 -23v7q-1 3 -1 5q0 16 7 27.5t23 23.5zM924 405h-36q15 -10 15 -24l-1 -4v-4
q-3 12 -16 12q-9 0 -16 -7t-7 -18q0 -12 10 -27t33 -33q23 18 33 33t10 27q0 11 -7 18t-16 7q-13 0 -16 -12q0 13 3 19.5t11 12.5zM212 995q-8 6 -11 12.5t-3 19.5q3 -12 16 -12q9 0 16 7t7 18q0 12 -10 27.5t-33 32.5q-23 -17 -33 -32.5t-10 -27.5q0 -11 7 -18t16 -7
q13 0 16 12v-4l1 -4q0 -14 -15 -24h36zM953 268h-10v-120h10v120zM863 182q0 -16 9.5 -25t22.5 -9q12 0 22 9t10 25v52q0 16 -10 25.5t-22 9.5q-13 0 -22.5 -9.5t-9.5 -25.5v-52zM871 187v41q0 29 24 29t24 -29v-41q0 -28 -24 -28t-24 28zM148 1132h10v120h-10v-120z
M230 1213v-41q0 -29 -24 -29t-24 29v41q0 29 24 29t24 -29zM238 1218q0 16 -10 25.5t-22 9.5q-13 0 -22.5 -9.5t-9.5 -25.5v-52q0 -16 9.5 -25t22.5 -9q12 0 22 9t10 25v52zM980 120h-860v1160h860v-1160zM1000 1300h-900v-1200h900v1200z" />
    <glyph glyph-name="k" unicode="k" 
d="M737 529h-74q16 -12 23 -23.5t7 -27.5q0 -2 -1 -5v-7q-7 23 -31 23q-18 0 -32.5 -13.5t-14.5 -35.5q0 -24 20.5 -54.5t65.5 -65.5q46 35 66 65.5t20 54.5q0 22 -14.5 35.5t-32.5 13.5q-24 0 -31 -23v7q-1 3 -1 5q0 16 7 27.5t23 23.5zM437 871q-16 12 -23 23.5t-7 27.5
q0 2 1 5v7q7 -23 31 -23q18 0 32.5 13.5t14.5 35.5q0 24 -20 54.5t-66 65.5q-45 -35 -65.5 -65.5t-20.5 -54.5q0 -22 14.5 -35.5t32.5 -13.5q24 0 31 23v-7q1 -3 1 -5q0 -16 -6.5 -27.5t-23.5 -23.5h74zM212 995q-8 6 -11 12.5t-3 19.5q3 -12 16 -12q9 0 16 7t7 18
q0 12 -10 27.5t-33 32.5q-23 -17 -33 -32.5t-10 -27.5q0 -11 7 -18t16 -7q13 0 16 12v-4l1 -4q0 -14 -15 -24h36zM924 405h-36q15 -10 15 -24l-1 -4v-4q-3 12 -16 12q-9 0 -16 -7t-7 -18q0 -12 10 -27t33 -33q23 18 33 33t10 27q0 11 -7 18t-16 7q-13 0 -16 -12q0 13 3 19.5
t11 12.5zM172 1164h-17q0 -24 11 -37t26 -13q13 0 24 10.5t12 28.5v87h20v15h-62v-15h20v-77q0 -25 -15 -25q-7 0 -13 7.5t-6 18.5zM852 160v-15h62v15h-20v77q0 25 15 25q7 0 13 -7t6 -19h17q0 24 -11 37t-26 13q-13 0 -24 -10.5t-12 -28.5v-87h-20zM689 1024l40 62h-250
l40 -62q11 8 34.5 12t50.5 4t50.5 -4t34.5 -12zM687 1033q-10 6 -33.5 9.5t-50.5 3.5q-26 0 -48.5 -3t-31.5 -9l-29 42h220zM682 877q-5 -27 -31.5 -46.5t-59.5 -19.5q-2 0 -7 1h-7q-30 32 -44.5 74t-14.5 81q0 29 7 46q12 8 34.5 12t47.5 4q31 0 43 -5zM687 877l-33 151
q-12 7 -48 7q-25 0 -49 -4.5t-37 -13.5q-7 -19 -7 -50q0 -42 15 -85.5t48 -75.5q45 0 75 18.5t36 52.5zM529 964q5 -6 16 -6q12 0 19 9q-7 9 -17 9q-13 0 -18 -12zM624 964q-5 12 -18 12q-10 0 -17 -9q7 -9 20 -9q10 0 15 6zM578 957h-7l-5 -57h8zM559 870v-7h56v7h-56z
M662 1023l-5 6l40 -189h5zM671 1021l-6 5l40 -183l4 1zM689 1017l-5 6l36 -174l4 1zM676 1021l37 -175l4 2l-36 172zM341 658l7 -5q38 82 96 126t110 47l-12 7q-21 -1 -48 -13.5t-55.5 -35.5t-54 -55.5t-43.5 -70.5zM411 376l-40 -62h250l-40 62q-11 -8 -34.5 -12t-50.5 -4
t-50.5 4t-34.5 12zM413 367q10 -6 33.5 -9.5t50.5 -3.5t49 3t31 9l29 -42h-220zM418 523q6 27 32 46.5t59 19.5h7q6 -1 7 -1q31 -32 45 -73.5t14 -81.5q0 -29 -7 -46q-12 -8 -34.5 -12t-47.5 -4q-31 0 -43 5zM413 523l33 -151q12 -6 48 -6q25 0 49 4t37 13q7 19 7 50
q0 42 -15 85.5t-48 75.5q-45 0 -75 -18.5t-36 -52.5zM571 436q-5 6 -15 6q-13 0 -20 -9q7 -9 17 -9q13 0 18 12zM476 436q5 -12 18 -12q10 0 17 9q-7 9 -19 9q-11 0 -16 -6zM522 443h7l5 57h-8zM541 530v7h-56v-7h56zM438 377l5 -6l-40 189h-5zM429 379l6 -5l-40 183l-4 -1z
M411 383l5 -6l-36 174l-4 -1zM424 379l-37 175l-4 -2l36 -172zM759 742l-7 5q-38 -81 -96 -125.5t-110 -47.5l12 -7q21 1 48 13.5t55.5 35.5t54 55.5t43.5 70.5zM1000 1300h-900v-1200h900v1200zM980 120h-860v1160h860v-1160zM810 1110v-820h-520v820h520zM270 1130v-860
h560v860h-560z" />
    <glyph glyph-name="l" unicode="l" 
d="M202 1161l14 -12q-8 -8 -21 -8q-16 0 -25 13.5t-9 32.5q0 18 9 31.5t25 13.5t25 -13.5t9 -31.5q0 -16 -6 -28l-13 14zM243 1122l11 12l-19 15q8 16 8 38q0 25 -12.5 44t-35.5 19t-35.5 -19t-12.5 -44q0 -26 12.5 -45t35.5 -19q20 0 32 14zM857 278l-11 -12l19 -15
q-8 -16 -8 -37q0 -26 12.5 -45t35.5 -19t35.5 19t12.5 45q0 25 -12.5 44t-35.5 19q-20 0 -32 -14zM898 239l-14 12q8 8 21 8q16 0 25.5 -13.5t9.5 -31.5q0 -19 -9.5 -32.5t-25.5 -13.5t-25 13.5t-9 32.5q0 15 6 27l13 -14zM437 871q-16 12 -23 23.5t-7 27.5q0 2 1 5v7
q7 -23 31 -23q18 0 32.5 13.5t14.5 35.5q0 24 -20 54.5t-66 65.5q-45 -35 -65.5 -65.5t-20.5 -54.5q0 -22 14.5 -35.5t32.5 -13.5q24 0 31 23v-7q1 -3 1 -5q0 -16 -6.5 -27.5t-23.5 -23.5h74zM737 529h-74q16 -12 23 -23.5t7 -27.5q0 -2 -1 -5v-7q-7 23 -31 23
q-18 0 -32.5 -13.5t-14.5 -35.5q0 -24 20.5 -54.5t65.5 -65.5q46 35 66 65.5t20 54.5q0 22 -14.5 35.5t-32.5 13.5q-24 0 -31 -23v7q-1 3 -1 5q0 16 7 27.5t23 23.5zM212 995q-8 6 -11 12.5t-3 19.5q3 -12 16 -12q9 0 16 7t7 18q0 12 -10 27.5t-33 32.5q-23 -17 -33 -32.5
t-10 -27.5q0 -11 7 -18t16 -7q13 0 16 12v-4l1 -4q0 -14 -15 -24h36zM924 405h-36q15 -10 15 -24l-1 -4v-4q-3 12 -16 12q-9 0 -16 -7t-7 -18q0 -12 10 -27t33 -33q23 18 33 33t10 27q0 11 -7 18t-16 7q-13 0 -16 -12q0 13 3 19.5t11 12.5zM565 797l-131 -92l4 -9l133 94z
M607 875v-7h30v7h-30zM631 969l-14 -53h7l13 53h-6zM702 961q-3 36 -23 36q-13 0 -27 -18q2 0 7 1h6q23 0 37 -19zM579 961q14 19 38 19h5q5 -1 7 -1q-14 18 -27 18q-20 0 -23 -36zM713 812l-99 -30q-28 12 -40.5 48t-12.5 91q0 49 10 127q78 41 116 41q27 0 38 -19.5
t11 -58.5q0 -32 -10 -119q-8 -69 -12.5 -121t-4.5 -110q0 -35 2 -68l84 12q-8 78 -15 214q-4 82 -7.5 127t-13.5 81.5t-28.5 56t-50.5 19.5q-45 0 -121 -43q-11 -87 -11 -142q0 -61 13.5 -100.5t44.5 -52.5l107 34v13zM388 592l99 30q29 -12 41 -48t12 -90q0 -49 -10 -128
q-78 -41 -116 -41q-27 0 -38 19.5t-11 58.5q0 30 10 119q8 73 12.5 123t4.5 108q0 35 -2 68l-84 -12q9 -77 15 -214q4 -82 7.5 -127t13.5 -81.5t28.5 -56t50.5 -19.5q45 0 121 43q11 87 11 143q0 60 -13.5 99.5t-44.5 52.5l-107 -34v-13zM522 443q-14 -19 -37 -19h-6
q-5 1 -7 1q14 -18 27 -18q20 0 23 36zM399 443q3 -36 23 -36q13 0 27 18q-2 0 -7 -1h-5q-24 0 -38 19zM470 435l14 53h-7l-13 -53h6zM494 529v7h-30v-7h30zM554 612l131 92l-4 9l-133 -94zM1000 1300h-900v-1200h900v1200zM980 120h-860v1160h860v-1160zM810 1110v-820h-520
v820h520zM270 1130v-860h560v860h-560z" />
    <glyph glyph-name="m" unicode="m" 
d="M305 631l8 -8q31 85 85 129t102 44q2 0 6 -1h6v10q-22 0 -50 -8.5t-58 -28.5t-56.5 -54t-42.5 -83zM751 763q-2 69 -6.5 112.5t-11 66t-12.5 31t-13 14.5q-1 0 -2 1l-34 12q17 -39 25 -67.5t8 -63.5q0 -52 -22 -123zM596 909h-4l-12 -45h4zM622 840h-58v-6h58v6zM660 932
q-6 -4 -20 -4q-10 0 -17 2.5t-7 8.5l1 2v2v-5q-1 -2 -1 -4q0 -27 19 -27q17 0 25 25zM544 932q8 -25 25 -25q19 0 19 27q0 2 -1 4v5q0 -1 1 -2v-2q0 -6 -7 -8.5t-17 -2.5q-14 0 -20 4zM698 833l-1 8q-36 -29 -71 -42.5t-61 -13.5q-26 3 -37 26t-11 59q0 25 4 52t10 57l-9 -3
q-1 -3 -1 -4q-6 -30 -9.5 -54.5t-3.5 -50.5q0 -34 9.5 -56.5t33.5 -27.5l38 -72l36 80q16 2 33 11.5t40 30.5zM750 1080l-44 -25l-25 31l-25 -31l-35 28l-31 -31l-35 28l-28 -32l-44 26l34 -92q13 12 42.5 18.5t62.5 6.5q31 0 56 -5.5t34 -15.5zM350 320l44 25l25 -31l25 31
l35 -28l31 31l35 -28l28 32l44 -26l-34 92q-13 -12 -42.5 -18t-62.5 -6q-31 0 -56 5t-34 15zM402 567l1 -8q36 29 71.5 42.5t60.5 13.5q26 -3 37 -26t11 -59q0 -25 -4 -52t-10 -57l9 3q1 3 1 4q6 30 9.5 54.5t3.5 50.5q0 34 -9.5 57t-33.5 27l-38 72l-36 -80
q-16 -2 -33 -11.5t-40 -30.5zM556 468q-8 25 -25 25q-19 0 -19 -27q0 -2 1 -4v-5v2l-1 2q0 6 7 8.5t17 2.5q14 0 20 -4zM440 468q6 4 20 4q10 0 17 -2.5t7 -8.5v-2q-1 -1 -1 -2v5q1 2 1 4q0 27 -19 27q-17 0 -25 -25zM478 560h58v6h-58v-6zM504 491h4l12 45h-4zM349 637
q2 -69 6.5 -112.5t11 -66t12.5 -31t13 -14.5q1 0 2 -1l34 -12q-17 39 -25 67.5t-8 63.5q0 53 22 123zM795 769l-8 8q-31 -85 -85 -129t-102 -44q-2 0 -6 1h-6v-10q22 0 50 8.5t58 28.5t56.5 54t42.5 83zM184 1182l47 68h-18l-38 -59v59h-15v-131h15v52l38 -52h18zM869 281
l47 -63l-47 -68h18l38 59v-59h15v131h-15v-52l-38 52h-18zM437 871q-16 12 -23 23.5t-7 27.5q0 2 1 5v7q7 -23 31 -23q18 0 32.5 13.5t14.5 35.5q0 24 -20 54.5t-66 65.5q-45 -35 -65.5 -65.5t-20.5 -54.5q0 -22 14.5 -35.5t32.5 -13.5q24 0 31 23v-7q1 -3 1 -5
q0 -16 -6.5 -27.5t-23.5 -23.5h74zM737 529h-74q16 -12 23 -23.5t7 -27.5q0 -2 -1 -5v-7q-7 23 -31 23q-18 0 -32.5 -13.5t-14.5 -35.5q0 -24 20.5 -54.5t65.5 -65.5q46 35 66 65.5t20 54.5q0 22 -14.5 35.5t-32.5 13.5q-24 0 -31 -23v7q-1 3 -1 5q0 16 7 27.5t23 23.5z
M212 995q-8 6 -11 12.5t-3 19.5q3 -12 16 -12q9 0 16 7t7 18q0 12 -10 27.5t-33 32.5q-23 -17 -33 -32.5t-10 -27.5q0 -11 7 -18t16 -7q13 0 16 12v-4l1 -4q0 -14 -15 -24h36zM924 405h-36q15 -10 15 -24l-1 -4v-4q-3 12 -16 12q-9 0 -16 -7t-7 -18q0 -12 10 -27t33 -33
q23 18 33 33t10 27q0 11 -7 18t-16 7q-13 0 -16 -12q0 13 3 19.5t11 12.5zM1000 1300h-900v-1200h900v1200zM980 120h-860v1160h860v-1160zM810 1110v-820h-520v820h520zM270 1130v-860h560v860h-560z" />
    <glyph glyph-name="n" unicode="n" 
d="M926 413h-24q8 -5 8 -12q0 -5 -4 -11q-10 6 -19 6q-19 0 -19 -23q0 -11 6 -19.5t16 -8.5q6 0 14 4q-14 -11 -14 -25q0 -21 24 -24q24 3 24 24q0 14 -13 25q7 -4 14 -4q10 0 16 8.5t6 19.5q0 23 -20 23q-8 0 -19 -6q-4 7 -4 11q0 7 8 12zM206 987q-8 5 -8 12q0 4 4 11
q11 -6 19 -6q20 0 20 24q0 10 -6 18.5t-16 8.5q-7 0 -14 -4q13 11 13 25q0 21 -24 24q-24 -3 -24 -24q0 -14 14 -25q-8 4 -14 4q-10 0 -16 -8.5t-6 -19.5q0 -23 19 -23q9 0 19 6q4 -6 4 -11q0 -7 -8 -12h24zM574 588q-16 8 -16 23q0 9 7 22q22 -13 40 -13q19 0 29.5 14
t10.5 34q0 21 -12 37.5t-32 16.5q-14 0 -29 -8q26 22 26 50q0 19 -13 32.5t-35 16.5q-22 -3 -35 -16.5t-13 -32.5q0 -28 26 -50q-15 8 -29 8q-20 0 -32 -16.5t-12 -37.5q0 -20 10.5 -34t29.5 -14q18 0 40 13q7 -13 7 -22q0 -15 -16 -23h48zM935 230h-41l-12 38h-12l36 -118
h16l37 118h-13zM931 218l-17 -56l-17 56h34zM215 1170l11 -38h13l-37 118h-16l-36 -118h12l12 38h41zM211 1182h-34l17 56zM980 120h-860v1160h860v-1160zM1000 1300h-900v-1200h900v1200z" />
    <glyph glyph-name="o" unicode="o" 
d="M574 425h-48q16 -9 16 -23q0 -9 -7 -22q-22 12 -40 12q-19 0 -29.5 -13.5t-10.5 -33.5q0 -21 12 -37.5t32 -16.5q14 0 29 8q-26 -23 -26 -51q0 -19 13 -32.5t35 -15.5q22 2 35 15.5t13 32.5q0 28 -26 51q15 -8 29 -8q20 0 32 16.5t12 37.5q0 20 -10.5 33.5t-29.5 13.5
q-18 0 -40 -12q-7 13 -7 22q0 14 16 23zM574 975q-16 9 -16 23q0 9 7 22q22 -12 40 -12q19 0 29.5 13.5t10.5 33.5q0 21 -12 37.5t-32 16.5q-14 0 -29 -8q26 23 26 51q0 19 -13 32.5t-35 15.5q-22 -2 -35 -15.5t-13 -32.5q0 -28 26 -51q-15 8 -29 8q-20 0 -32 -16.5
t-12 -37.5q0 -20 10.5 -33.5t29.5 -13.5q18 0 40 12q7 -13 7 -22q0 -14 -16 -23h48zM206 987q-8 5 -8 12q0 4 4 11q11 -6 19 -6q20 0 20 24q0 10 -6 18.5t-16 8.5q-7 0 -14 -4q13 11 13 25q0 21 -24 24q-24 -3 -24 -24q0 -14 14 -25q-8 4 -14 4q-10 0 -16 -8.5t-6 -19.5
q0 -23 19 -23q9 0 19 6q4 -6 4 -11q0 -7 -8 -12h24zM926 413h-24q8 -5 8 -12q0 -5 -4 -11q-10 6 -19 6q-19 0 -19 -23q0 -11 6 -19.5t16 -8.5q6 0 14 4q-14 -11 -14 -25q0 -21 24 -24q24 3 24 24q0 14 -13 25q7 -4 14 -4q10 0 16 8.5t6 19.5q0 23 -20 23q-8 0 -19 -6
q-4 7 -4 11q0 7 8 12zM866 268v-10h69q-25 -15 -43 -38.5t-18 -42.5q0 -28 40 -31q20 2 28 11.5t8 23.5h-13q-1 -10 -5.5 -16.5t-17.5 -7.5q-26 3 -26 20q0 15 19 37.5t43 40.5v13h-84zM163 1219q1 10 5.5 16.5t17.5 7.5q26 -3 26 -20q0 -15 -19 -37.5t-43 -40.5v-13h84v10
h-69q25 16 43 39t18 42q0 28 -40 31q-19 -2 -27.5 -11.5t-8.5 -23.5h13zM980 120h-860v1160h860v-1160zM1000 1300h-900v-1200h900v1200z" />
    <glyph glyph-name="p" unicode="p" 
d="M574 588q-16 8 -16 23q0 9 7 22q22 -13 40 -13q19 0 29.5 14t10.5 34q0 21 -12 37.5t-32 16.5q-14 0 -29 -8q26 22 26 50q0 19 -13 32.5t-35 16.5q-22 -3 -35 -16.5t-13 -32.5q0 -28 26 -50q-15 8 -29 8q-20 0 -32 -16.5t-12 -37.5q0 -20 10.5 -34t29.5 -14q18 0 40 13
q7 -13 7 -22q0 -15 -16 -23h48zM574 975q-16 9 -16 23q0 9 7 22q22 -12 40 -12q19 0 29.5 13.5t10.5 33.5q0 21 -12 37.5t-32 16.5q-14 0 -29 -8q26 23 26 51q0 19 -13 32.5t-35 15.5q-22 -2 -35 -15.5t-13 -32.5q0 -28 26 -51q-15 8 -29 8q-20 0 -32 -16.5t-12 -37.5
q0 -20 10.5 -33.5t29.5 -13.5q18 0 40 12q7 -13 7 -22q0 -14 -16 -23h48zM574 425h-48q16 -9 16 -23q0 -9 -7 -22q-22 12 -40 12q-19 0 -29.5 -13.5t-10.5 -33.5q0 -21 12 -37.5t32 -16.5q14 0 29 8q-26 -23 -26 -51q0 -19 13 -32.5t35 -15.5q22 2 35 15.5t13 32.5
q0 28 -26 51q15 -8 29 -8q20 0 32 16.5t12 37.5q0 20 -10.5 33.5t-29.5 13.5q-18 0 -40 -12q-7 13 -7 22q0 14 16 23zM926 413h-24q8 -5 8 -12q0 -5 -4 -11q-10 6 -19 6q-19 0 -19 -23q0 -11 6 -19.5t16 -8.5q6 0 14 4q-14 -11 -14 -25q0 -21 24 -24q24 3 24 24q0 14 -13 25
q7 -4 14 -4q10 0 16 8.5t6 19.5q0 23 -20 23q-8 0 -19 -6q-4 7 -4 11q0 7 8 12zM206 987q-8 5 -8 12q0 4 4 11q11 -6 19 -6q20 0 20 24q0 10 -6 18.5t-16 8.5q-7 0 -14 -4q13 11 13 25q0 21 -24 24q-24 -3 -24 -24q0 -14 14 -25q-8 4 -14 4q-10 0 -16 -8.5t-6 -19.5
q0 -23 19 -23q9 0 19 6q4 -6 4 -11q0 -7 -8 -12h24zM927 207v7h-20q-7 1 -14 9l-1 1q-5 6 -5 13q0 8 6.5 13.5t20.5 6.5q13 -1 17.5 -7.5t5.5 -16.5h13q0 14 -8 23.5t-28 11.5q-40 -4 -40 -32q0 -17 19 -29q-19 -12 -19 -29q0 -28 40 -32q20 2 28 11.5t8 23.5h-13
q-1 -10 -5.5 -16.5t-17.5 -7.5q-14 1 -20.5 6.5t-6.5 13.5q0 7 5 13l1 1q7 8 14 9h20v7zM173 1193v-7h20q7 -1 14 -9l1 -1q5 -6 5 -13q0 -8 -6 -13.5t-21 -6.5q-13 1 -17.5 7.5t-5.5 16.5h-13q0 -14 8.5 -23.5t27.5 -11.5q40 4 40 32q0 17 -19 29q19 12 19 29q0 28 -40 32
q-19 -2 -27.5 -11.5t-8.5 -23.5h13q1 10 5.5 16.5t17.5 7.5q14 -1 20.5 -6.5t6.5 -13.5q0 -7 -5 -13l-1 -1q-7 -8 -14 -9h-20v-7zM980 120h-860v1160h860v-1160zM1000 1300h-900v-1200h900v1200z" />
    <glyph glyph-name="q" unicode="q" 
d="M754 975q-16 9 -16 23q0 9 7 22q22 -12 40 -12q19 0 29.5 13.5t10.5 33.5q0 21 -12 37.5t-32 16.5q-14 0 -29 -8q26 23 26 51q0 19 -13 32.5t-35 15.5q-22 -2 -35 -15.5t-13 -32.5q0 -28 26 -51q-15 8 -29 8q-20 0 -32 -16.5t-12 -37.5q0 -20 10.5 -33.5t29.5 -13.5
q18 0 40 12q7 -13 7 -22q0 -14 -16 -23h48zM754 425h-48q16 -9 16 -23q0 -9 -7 -22q-22 12 -40 12q-19 0 -29.5 -13.5t-10.5 -33.5q0 -21 12 -37.5t32 -16.5q14 0 29 8q-26 -23 -26 -51q0 -19 13 -32.5t35 -15.5q22 2 35 15.5t13 32.5q0 28 -26 51q15 -8 29 -8q20 0 32 16.5
t12 37.5q0 20 -10.5 33.5t-29.5 13.5q-18 0 -40 -12q-7 13 -7 22q0 14 16 23zM394 975q-16 9 -16 23q0 9 7 22q22 -12 40 -12q19 0 29.5 13.5t10.5 33.5q0 21 -12 37.5t-32 16.5q-14 0 -29 -8q26 23 26 51q0 19 -13 32.5t-35 15.5q-22 -2 -35 -15.5t-13 -32.5q0 -28 26 -51
q-15 8 -29 8q-20 0 -32 -16.5t-12 -37.5q0 -20 10.5 -33.5t29.5 -13.5q18 0 40 12q7 -13 7 -22q0 -14 -16 -23h48zM394 425h-48q16 -9 16 -23q0 -9 -7 -22q-22 12 -40 12q-19 0 -29.5 -13.5t-10.5 -33.5q0 -21 12 -37.5t32 -16.5q14 0 29 8q-26 -23 -26 -51q0 -19 13 -32.5
t35 -15.5q22 2 35 15.5t13 32.5q0 28 -26 51q15 -8 29 -8q20 0 32 16.5t12 37.5q0 20 -10.5 33.5t-29.5 13.5q-18 0 -40 -12q-7 13 -7 22q0 14 16 23zM926 413h-24q8 -5 8 -12q0 -5 -4 -11q-10 6 -19 6q-19 0 -19 -23q0 -11 6 -19.5t16 -8.5q6 0 14 4q-14 -11 -14 -25
q0 -21 24 -24q24 3 24 24q0 14 -13 25q7 -4 14 -4q10 0 16 8.5t6 19.5q0 23 -20 23q-8 0 -19 -6q-4 7 -4 11q0 7 8 12zM206 987q-8 5 -8 12q0 4 4 11q11 -6 19 -6q20 0 20 24q0 10 -6 18.5t-16 8.5q-7 0 -14 -4q13 11 13 25q0 21 -24 24q-24 -3 -24 -24q0 -14 14 -25
q-8 4 -14 4q-10 0 -16 -8.5t-6 -19.5q0 -23 19 -23q9 0 19 6q4 -6 4 -11q0 -7 -8 -12h24zM865 237v-10h15v-81h10l60 81v10h-60v31h-10v-31h-15zM936 227l-46 -63v63h46zM210 1254l-60 -81v-10h60v-31h10v31h15v10h-15v81h-10zM164 1173l46 63v-63h-46zM980 120h-860v1160
h860v-1160zM1000 1300h-900v-1200h900v1200z" />
    <glyph glyph-name="r" unicode="r" 
d="M574 588q-16 8 -16 23q0 9 7 22q22 -13 40 -13q19 0 29.5 14t10.5 34q0 21 -12 37.5t-32 16.5q-14 0 -29 -8q26 22 26 50q0 19 -13 32.5t-35 16.5q-22 -3 -35 -16.5t-13 -32.5q0 -28 26 -50q-15 8 -29 8q-20 0 -32 -16.5t-12 -37.5q0 -20 10.5 -34t29.5 -14q18 0 40 13
q7 -13 7 -22q0 -15 -16 -23h48zM394 425h-48q16 -9 16 -23q0 -9 -7 -22q-22 12 -40 12q-19 0 -29.5 -13.5t-10.5 -33.5q0 -21 12 -37.5t32 -16.5q14 0 29 8q-26 -23 -26 -51q0 -19 13 -32.5t35 -15.5q22 2 35 15.5t13 32.5q0 28 -26 51q15 -8 29 -8q20 0 32 16.5t12 37.5
q0 20 -10.5 33.5t-29.5 13.5q-18 0 -40 -12q-7 13 -7 22q0 14 16 23zM394 975q-16 9 -16 23q0 9 7 22q22 -12 40 -12q19 0 29.5 13.5t10.5 33.5q0 21 -12 37.5t-32 16.5q-14 0 -29 -8q26 23 26 51q0 19 -13 32.5t-35 15.5q-22 -2 -35 -15.5t-13 -32.5q0 -28 26 -51
q-15 8 -29 8q-20 0 -32 -16.5t-12 -37.5q0 -20 10.5 -33.5t29.5 -13.5q18 0 40 12q7 -13 7 -22q0 -14 -16 -23h48zM754 425h-48q16 -9 16 -23q0 -9 -7 -22q-22 12 -40 12q-19 0 -29.5 -13.5t-10.5 -33.5q0 -21 12 -37.5t32 -16.5q14 0 29 8q-26 -23 -26 -51q0 -19 13 -32.5
t35 -15.5q22 2 35 15.5t13 32.5q0 28 -26 51q15 -8 29 -8q20 0 32 16.5t12 37.5q0 20 -10.5 33.5t-29.5 13.5q-18 0 -40 -12q-7 13 -7 22q0 14 16 23zM754 975q-16 9 -16 23q0 9 7 22q22 -12 40 -12q19 0 29.5 13.5t10.5 33.5q0 21 -12 37.5t-32 16.5q-14 0 -29 -8
q26 23 26 51q0 19 -13 32.5t-35 15.5q-22 -2 -35 -15.5t-13 -32.5q0 -28 26 -51q-15 8 -29 8q-20 0 -32 -16.5t-12 -37.5q0 -20 10.5 -33.5t29.5 -13.5q18 0 40 12q7 -13 7 -22q0 -14 -16 -23h48zM926 413h-24q8 -5 8 -12q0 -5 -4 -11q-10 6 -19 6q-19 0 -19 -23
q0 -11 6 -19.5t16 -8.5q6 0 14 4q-14 -11 -14 -25q0 -21 24 -24q24 3 24 24q0 14 -13 25q7 -4 14 -4q10 0 16 8.5t6 19.5q0 23 -20 23q-8 0 -19 -6q-4 7 -4 11q0 7 8 12zM206 987q-8 5 -8 12q0 4 4 11q11 -6 19 -6q20 0 20 24q0 10 -6 18.5t-16 8.5q-7 0 -14 -4q13 11 13 25
q0 21 -24 24q-24 -3 -24 -24q0 -14 14 -25q-8 4 -14 4q-10 0 -16 -8.5t-6 -19.5q0 -23 19 -23q9 0 19 6q4 -6 4 -11q0 -7 -8 -12h24zM950 250v10q-23 8 -41 8q-23 0 -33.5 -12t-10.5 -29q0 -20 15 -31.5t35 -11.5q15 0 25 7v-35h-65v-10h75v60q-21 -11 -38 -11q-31 0 -37 32
q3 30 35 30q16 0 40 -7zM150 1150v-10q23 -8 41 -8q23 0 33.5 12.5t10.5 28.5q0 20 -15 31.5t-35 11.5q-15 0 -25 -7v35h65v10h-75v-60q21 11 38 11q31 0 37 -32q-3 -30 -35 -30q-16 0 -40 7zM980 120h-860v1160h860v-1160zM1000 1300h-900v-1200h900v1200z" />
    <glyph glyph-name="s" unicode="s" 
d="M754 588q-16 8 -16 23q0 9 7 22q22 -13 40 -13q19 0 29.5 14t10.5 34q0 21 -12 37.5t-32 16.5q-14 0 -29 -8q26 22 26 50q0 19 -13 32.5t-35 16.5q-22 -3 -35 -16.5t-13 -32.5q0 -28 26 -50q-15 8 -29 8q-20 0 -32 -16.5t-12 -37.5q0 -20 10.5 -34t29.5 -14q18 0 40 13
q7 -13 7 -22q0 -15 -16 -23h48zM754 975q-16 9 -16 23q0 9 7 22q22 -12 40 -12q19 0 29.5 13.5t10.5 33.5q0 21 -12 37.5t-32 16.5q-14 0 -29 -8q26 23 26 51q0 19 -13 32.5t-35 15.5q-22 -2 -35 -15.5t-13 -32.5q0 -28 26 -51q-15 8 -29 8q-20 0 -32 -16.5t-12 -37.5
q0 -20 10.5 -33.5t29.5 -13.5q18 0 40 12q7 -13 7 -22q0 -14 -16 -23h48zM754 425h-48q16 -9 16 -23q0 -9 -7 -22q-22 12 -40 12q-19 0 -29.5 -13.5t-10.5 -33.5q0 -21 12 -37.5t32 -16.5q14 0 29 8q-26 -23 -26 -51q0 -19 13 -32.5t35 -15.5q22 2 35 15.5t13 32.5
q0 28 -26 51q15 -8 29 -8q20 0 32 16.5t12 37.5q0 20 -10.5 33.5t-29.5 13.5q-18 0 -40 -12q-7 13 -7 22q0 14 16 23zM394 975q-16 9 -16 23q0 9 7 22q22 -12 40 -12q19 0 29.5 13.5t10.5 33.5q0 21 -12 37.5t-32 16.5q-14 0 -29 -8q26 23 26 51q0 19 -13 32.5t-35 15.5
q-22 -2 -35 -15.5t-13 -32.5q0 -28 26 -51q-15 8 -29 8q-20 0 -32 -16.5t-12 -37.5q0 -20 10.5 -33.5t29.5 -13.5q18 0 40 12q7 -13 7 -22q0 -14 -16 -23h48zM394 425h-48q16 -9 16 -23q0 -9 -7 -22q-22 12 -40 12q-19 0 -29.5 -13.5t-10.5 -33.5q0 -21 12 -37.5t32 -16.5
q14 0 29 8q-26 -23 -26 -51q0 -19 13 -32.5t35 -15.5q22 2 35 15.5t13 32.5q0 28 -26 51q15 -8 29 -8q20 0 32 16.5t12 37.5q0 20 -10.5 33.5t-29.5 13.5q-18 0 -40 -12q-7 13 -7 22q0 14 16 23zM394 588q-16 8 -16 23q0 9 7 22q22 -13 40 -13q19 0 29.5 14t10.5 34
q0 21 -12 37.5t-32 16.5q-14 0 -29 -8q26 22 26 50q0 19 -13 32.5t-35 16.5q-22 -3 -35 -16.5t-13 -32.5q0 -28 26 -50q-15 8 -29 8q-20 0 -32 -16.5t-12 -37.5q0 -20 10.5 -34t29.5 -14q18 0 40 13q7 -13 7 -22q0 -15 -16 -23h48zM926 413h-24q8 -5 8 -12q0 -5 -4 -11
q-10 6 -19 6q-19 0 -19 -23q0 -11 6 -19.5t16 -8.5q6 0 14 4q-14 -11 -14 -25q0 -21 24 -24q24 3 24 24q0 14 -13 25q7 -4 14 -4q10 0 16 8.5t6 19.5q0 23 -20 23q-8 0 -19 -6q-4 7 -4 11q0 7 8 12zM206 987q-8 5 -8 12q0 4 4 11q11 -6 19 -6q20 0 20 24q0 10 -6 18.5
t-16 8.5q-7 0 -14 -4q13 11 13 25q0 21 -24 24q-24 -3 -24 -24q0 -14 14 -25q-8 4 -14 4q-10 0 -16 -8.5t-6 -19.5q0 -23 19 -23q9 0 19 6q4 -6 4 -11q0 -7 -8 -12h24zM950 174v56q0 18 -12.5 28t-29.5 10q-18 0 -30.5 -10t-12.5 -28q0 -23 12 -34t29 -11q12 0 22 5t12 13
v-29q-7 -18 -32 -18t-29 17h-10q0 -13 11.5 -20.5t27.5 -7.5t28 8t14 21zM940 230q0 -16 -9.5 -24.5t-22.5 -8.5t-23 9t-10 24q0 13 9.5 20t22.5 7t23 -7t10 -20zM160 1170q0 16 9.5 24.5t22.5 8.5t23 -9t10 -24q0 -13 -9.5 -19.5t-22.5 -6.5t-23 7t-10 19zM150 1226v-56
q0 -18 12.5 -28t30.5 -10q17 0 29.5 10t12.5 28q0 23 -12 34t-29 11q-12 0 -22 -5t-12 -13v29q7 18 32 18t29 -17h10q0 13 -11.5 20.5t-27.5 7.5t-28 -7.5t-14 -21.5zM980 120h-860v1160h860v-1160zM1000 1300h-900v-1200h900v1200z" />
    <glyph glyph-name="t" unicode="t" 
d="M574 775q-16 9 -16 23q0 9 7 22q22 -12 40 -12q19 0 29.5 13.5t10.5 33.5q0 21 -12 37.5t-32 16.5q-14 0 -29 -8q26 23 26 51q0 19 -13 32.5t-35 15.5q-22 -2 -35 -15.5t-13 -32.5q0 -28 26 -51q-15 8 -29 8q-20 0 -32 -16.5t-12 -37.5q0 -20 10.5 -33.5t29.5 -13.5
q18 0 40 12q7 -13 7 -22q0 -14 -16 -23h48zM394 588q-16 8 -16 23q0 9 7 22q22 -13 40 -13q19 0 29.5 14t10.5 34q0 21 -12 37.5t-32 16.5q-14 0 -29 -8q26 22 26 50q0 19 -13 32.5t-35 16.5q-22 -3 -35 -16.5t-13 -32.5q0 -28 26 -50q-15 8 -29 8q-20 0 -32 -16.5
t-12 -37.5q0 -20 10.5 -34t29.5 -14q18 0 40 13q7 -13 7 -22q0 -15 -16 -23h48zM394 425h-48q16 -9 16 -23q0 -9 -7 -22q-22 12 -40 12q-19 0 -29.5 -13.5t-10.5 -33.5q0 -21 12 -37.5t32 -16.5q14 0 29 8q-26 -23 -26 -51q0 -19 13 -32.5t35 -15.5q22 2 35 15.5t13 32.5
q0 28 -26 51q15 -8 29 -8q20 0 32 16.5t12 37.5q0 20 -10.5 33.5t-29.5 13.5q-18 0 -40 -12q-7 13 -7 22q0 14 16 23zM394 975q-16 9 -16 23q0 9 7 22q22 -12 40 -12q19 0 29.5 13.5t10.5 33.5q0 21 -12 37.5t-32 16.5q-14 0 -29 -8q26 23 26 51q0 19 -13 32.5t-35 15.5
q-22 -2 -35 -15.5t-13 -32.5q0 -28 26 -51q-15 8 -29 8q-20 0 -32 -16.5t-12 -37.5q0 -20 10.5 -33.5t29.5 -13.5q18 0 40 12q7 -13 7 -22q0 -14 -16 -23h48zM754 425h-48q16 -9 16 -23q0 -9 -7 -22q-22 12 -40 12q-19 0 -29.5 -13.5t-10.5 -33.5q0 -21 12 -37.5t32 -16.5
q14 0 29 8q-26 -23 -26 -51q0 -19 13 -32.5t35 -15.5q22 2 35 15.5t13 32.5q0 28 -26 51q15 -8 29 -8q20 0 32 16.5t12 37.5q0 20 -10.5 33.5t-29.5 13.5q-18 0 -40 -12q-7 13 -7 22q0 14 16 23zM754 975q-16 9 -16 23q0 9 7 22q22 -12 40 -12q19 0 29.5 13.5t10.5 33.5
q0 21 -12 37.5t-32 16.5q-14 0 -29 -8q26 23 26 51q0 19 -13 32.5t-35 15.5q-22 -2 -35 -15.5t-13 -32.5q0 -28 26 -51q-15 8 -29 8q-20 0 -32 -16.5t-12 -37.5q0 -20 10.5 -33.5t29.5 -13.5q18 0 40 12q7 -13 7 -22q0 -14 -16 -23h48zM754 588q-16 8 -16 23q0 9 7 22
q22 -13 40 -13q19 0 29.5 14t10.5 34q0 21 -12 37.5t-32 16.5q-14 0 -29 -8q26 22 26 50q0 19 -13 32.5t-35 16.5q-22 -3 -35 -16.5t-13 -32.5q0 -28 26 -50q-15 8 -29 8q-20 0 -32 -16.5t-12 -37.5q0 -20 10.5 -34t29.5 -14q18 0 40 13q7 -13 7 -22q0 -15 -16 -23h48z
M926 413h-24q8 -5 8 -12q0 -5 -4 -11q-10 6 -19 6q-19 0 -19 -23q0 -11 6 -19.5t16 -8.5q6 0 14 4q-14 -11 -14 -25q0 -21 24 -24q24 3 24 24q0 14 -13 25q7 -4 14 -4q10 0 16 8.5t6 19.5q0 23 -20 23q-8 0 -19 -6q-4 7 -4 11q0 7 8 12zM206 987q-8 5 -8 12q0 4 4 11
q11 -6 19 -6q20 0 20 24q0 10 -6 18.5t-16 8.5q-7 0 -14 -4q13 11 13 25q0 21 -24 24q-24 -3 -24 -24q0 -14 14 -25q-8 4 -14 4q-10 0 -16 -8.5t-6 -19.5q0 -23 19 -23q9 0 19 6q4 -6 4 -11q0 -7 -8 -12h24zM872 161v-15h82v15h-62q24 48 30 108h-15q-4 -31 -11.5 -56
t-23.5 -52zM203 1133q4 31 12 56t23 52v15h-82v-15h62q-24 -48 -30 -108h15zM980 120h-860v1160h860v-1160zM1000 1300h-900v-1200h900v1200z" />
    <glyph glyph-name="u" unicode="u" 
d="M394 425h-48q16 -9 16 -23q0 -9 -7 -22q-22 12 -40 12q-19 0 -29.5 -13.5t-10.5 -33.5q0 -21 12 -37.5t32 -16.5q14 0 29 8q-26 -23 -26 -51q0 -19 13 -32.5t35 -15.5q22 2 35 15.5t13 32.5q0 28 -26 51q15 -8 29 -8q20 0 32 16.5t12 37.5q0 20 -10.5 33.5t-29.5 13.5
q-18 0 -40 -12q-7 13 -7 22q0 14 16 23zM754 588q-16 8 -16 23q0 9 7 22q22 -13 40 -13q19 0 29.5 14t10.5 34q0 21 -12 37.5t-32 16.5q-14 0 -29 -8q26 22 26 50q0 19 -13 32.5t-35 16.5q-22 -3 -35 -16.5t-13 -32.5q0 -28 26 -50q-15 8 -29 8q-20 0 -32 -16.5t-12 -37.5
q0 -20 10.5 -34t29.5 -14q18 0 40 13q7 -13 7 -22q0 -15 -16 -23h48zM754 975q-16 9 -16 23q0 9 7 22q22 -12 40 -12q19 0 29.5 13.5t10.5 33.5q0 21 -12 37.5t-32 16.5q-14 0 -29 -8q26 23 26 51q0 19 -13 32.5t-35 15.5q-22 -2 -35 -15.5t-13 -32.5q0 -28 26 -51
q-15 8 -29 8q-20 0 -32 -16.5t-12 -37.5q0 -20 10.5 -33.5t29.5 -13.5q18 0 40 12q7 -13 7 -22q0 -14 -16 -23h48zM754 425h-48q16 -9 16 -23q0 -9 -7 -22q-22 12 -40 12q-19 0 -29.5 -13.5t-10.5 -33.5q0 -21 12 -37.5t32 -16.5q14 0 29 8q-26 -23 -26 -51q0 -19 13 -32.5
t35 -15.5q22 2 35 15.5t13 32.5q0 28 -26 51q15 -8 29 -8q20 0 32 16.5t12 37.5q0 20 -10.5 33.5t-29.5 13.5q-18 0 -40 -12q-7 13 -7 22q0 14 16 23zM394 975q-16 9 -16 23q0 9 7 22q22 -12 40 -12q19 0 29.5 13.5t10.5 33.5q0 21 -12 37.5t-32 16.5q-14 0 -29 -8
q26 23 26 51q0 19 -13 32.5t-35 15.5q-22 -2 -35 -15.5t-13 -32.5q0 -28 26 -51q-15 8 -29 8q-20 0 -32 -16.5t-12 -37.5q0 -20 10.5 -33.5t29.5 -13.5q18 0 40 12q7 -13 7 -22q0 -14 -16 -23h48zM574 625h-48q16 -9 16 -23q0 -9 -7 -22q-22 12 -40 12q-19 0 -29.5 -13.5
t-10.5 -33.5q0 -21 12 -37.5t32 -16.5q14 0 29 8q-26 -23 -26 -51q0 -19 13 -32.5t35 -15.5q22 2 35 15.5t13 32.5q0 28 -26 51q15 -8 29 -8q20 0 32 16.5t12 37.5q0 20 -10.5 33.5t-29.5 13.5q-18 0 -40 -12q-7 13 -7 22q0 14 16 23zM394 588q-16 8 -16 23q0 9 7 22
q22 -13 40 -13q19 0 29.5 14t10.5 34q0 21 -12 37.5t-32 16.5q-14 0 -29 -8q26 22 26 50q0 19 -13 32.5t-35 16.5q-22 -3 -35 -16.5t-13 -32.5q0 -28 26 -50q-15 8 -29 8q-20 0 -32 -16.5t-12 -37.5q0 -20 10.5 -34t29.5 -14q18 0 40 13q7 -13 7 -22q0 -15 -16 -23h48z
M574 775q-16 9 -16 23q0 9 7 22q22 -12 40 -12q19 0 29.5 13.5t10.5 33.5q0 21 -12 37.5t-32 16.5q-14 0 -29 -8q26 23 26 51q0 19 -13 32.5t-35 15.5q-22 -2 -35 -15.5t-13 -32.5q0 -28 26 -51q-15 8 -29 8q-20 0 -32 -16.5t-12 -37.5q0 -20 10.5 -33.5t29.5 -13.5
q18 0 40 12q7 -13 7 -22q0 -14 -16 -23h48zM926 413h-24q8 -5 8 -12q0 -5 -4 -11q-10 6 -19 6q-19 0 -19 -23q0 -11 6 -19.5t16 -8.5q6 0 14 4q-14 -11 -14 -25q0 -21 24 -24q24 3 24 24q0 14 -13 25q7 -4 14 -4q10 0 16 8.5t6 19.5q0 23 -20 23q-8 0 -19 -6q-4 7 -4 11
q0 7 8 12zM206 987q-8 5 -8 12q0 4 4 11q11 -6 19 -6q20 0 20 24q0 10 -6 18.5t-16 8.5q-7 0 -14 -4q13 11 13 25q0 21 -24 24q-24 -3 -24 -24q0 -14 14 -25q-8 4 -14 4q-10 0 -16 -8.5t-6 -19.5q0 -23 19 -23q9 0 19 6q4 -6 4 -11q0 -7 -8 -12h24zM195 1143
q-14 1 -20.5 6.5t-6.5 13.5q0 7 5 13l1 1q3 3 7.5 5.5t13.5 3.5q9 0 13.5 -3t7.5 -6l1 -1q5 -6 5 -13q0 -8 -6 -13.5t-21 -6.5zM195 1254q-40 -4 -40 -32q0 -17 19 -29q-19 -12 -19 -29q0 -28 40 -32q40 4 40 32q0 17 -19 29q19 12 19 29q0 28 -40 32zM195 1200
q-9 1 -13.5 3.5t-7.5 5.5l-1 1q-5 6 -5 13q0 8 6.5 13.5t20.5 6.5q14 -1 20.5 -6.5t6.5 -13.5q0 -7 -5 -13l-1 -1q-3 -3 -7.5 -5.5t-13.5 -3.5zM915 214q-9 1 -13.5 3.5t-7.5 5.5l-1 1q-5 6 -5 13q0 8 6.5 13.5t20.5 6.5q14 -1 20.5 -6.5t6.5 -13.5q0 -7 -5 -13l-1 -1
q-3 -3 -7.5 -5.5t-13.5 -3.5zM915 268q-40 -4 -40 -32q0 -17 19 -29q-19 -12 -19 -29q0 -28 40 -32q40 4 40 32q0 17 -19 29q19 12 19 29q0 28 -40 32zM915 157q-14 1 -20.5 6.5t-6.5 13.5q0 7 5 13l1 1q3 3 7.5 5.5t13.5 3.5q9 0 13.5 -3t7.5 -6l1 -1q5 -6 5 -13
q0 -8 -6 -13.5t-21 -6.5zM980 120h-860v1160h860v-1160zM1000 1300h-900v-1200h900v1200z" />
    <glyph glyph-name="v" unicode="v" 
d="M394 425h-48q16 -9 16 -23q0 -9 -7 -22q-22 12 -40 12q-19 0 -29.5 -13.5t-10.5 -33.5q0 -21 12 -37.5t32 -16.5q14 0 29 8q-26 -23 -26 -51q0 -19 13 -32.5t35 -15.5q22 2 35 15.5t13 32.5q0 28 -26 51q15 -8 29 -8q20 0 32 16.5t12 37.5q0 20 -10.5 33.5t-29.5 13.5
q-18 0 -40 -12q-7 13 -7 22q0 14 16 23zM754 425h-48q16 -9 16 -23q0 -9 -7 -22q-22 12 -40 12q-19 0 -29.5 -13.5t-10.5 -33.5q0 -21 12 -37.5t32 -16.5q14 0 29 8q-26 -23 -26 -51q0 -19 13 -32.5t35 -15.5q22 2 35 15.5t13 32.5q0 28 -26 51q15 -8 29 -8q20 0 32 16.5
t12 37.5q0 20 -10.5 33.5t-29.5 13.5q-18 0 -40 -12q-7 13 -7 22q0 14 16 23zM574 845q-16 9 -16 23q0 9 7 22q22 -12 40 -12q19 0 29.5 13.5t10.5 33.5q0 21 -12 37.5t-32 16.5q-14 0 -29 -8q26 23 26 51q0 19 -13 32.5t-35 15.5q-22 -2 -35 -15.5t-13 -32.5q0 -28 26 -51
q-15 8 -29 8q-20 0 -32 -16.5t-12 -37.5q0 -20 10.5 -33.5t29.5 -13.5q18 0 40 12q7 -13 7 -22q0 -14 -16 -23h48zM394 720q-16 9 -16 23q0 9 7 22q22 -12 40 -12q19 0 29.5 13.5t10.5 33.5q0 21 -12 37.5t-32 16.5q-14 0 -29 -8q26 23 26 51q0 19 -13 32.5t-35 15.5
q-22 -2 -35 -15.5t-13 -32.5q0 -28 26 -51q-15 8 -29 8q-20 0 -32 -16.5t-12 -37.5q0 -20 10.5 -33.5t29.5 -13.5q18 0 40 12q7 -13 7 -22q0 -14 -16 -23h48zM394 975q-16 9 -16 23q0 9 7 22q22 -12 40 -12q19 0 29.5 13.5t10.5 33.5q0 21 -12 37.5t-32 16.5q-14 0 -29 -8
q26 23 26 51q0 19 -13 32.5t-35 15.5q-22 -2 -35 -15.5t-13 -32.5q0 -28 26 -51q-15 8 -29 8q-20 0 -32 -16.5t-12 -37.5q0 -20 10.5 -33.5t29.5 -13.5q18 0 40 12q7 -13 7 -22q0 -14 -16 -23h48zM754 680h-48q16 -9 16 -23q0 -9 -7 -22q-22 12 -40 12q-19 0 -29.5 -13.5
t-10.5 -33.5q0 -21 12 -37.5t32 -16.5q14 0 29 8q-26 -23 -26 -51q0 -19 13 -32.5t35 -15.5q22 2 35 15.5t13 32.5q0 28 -26 51q15 -8 29 -8q20 0 32 16.5t12 37.5q0 20 -10.5 33.5t-29.5 13.5q-18 0 -40 -12q-7 13 -7 22q0 14 16 23zM754 975q-16 9 -16 23q0 9 7 22
q22 -12 40 -12q19 0 29.5 13.5t10.5 33.5q0 21 -12 37.5t-32 16.5q-14 0 -29 -8q26 23 26 51q0 19 -13 32.5t-35 15.5q-22 -2 -35 -15.5t-13 -32.5q0 -28 26 -51q-15 8 -29 8q-20 0 -32 -16.5t-12 -37.5q0 -20 10.5 -33.5t29.5 -13.5q18 0 40 12q7 -13 7 -22q0 -14 -16 -23
h48zM754 720q-16 9 -16 23q0 9 7 22q22 -12 40 -12q19 0 29.5 13.5t10.5 33.5q0 21 -12 37.5t-32 16.5q-14 0 -29 -8q26 23 26 51q0 19 -13 32.5t-35 15.5q-22 -2 -35 -15.5t-13 -32.5q0 -28 26 -51q-15 8 -29 8q-20 0 -32 -16.5t-12 -37.5q0 -20 10.5 -33.5t29.5 -13.5
q18 0 40 12q7 -13 7 -22q0 -14 -16 -23h48zM394 680h-48q16 -9 16 -23q0 -9 -7 -22q-22 12 -40 12q-19 0 -29.5 -13.5t-10.5 -33.5q0 -21 12 -37.5t32 -16.5q14 0 29 8q-26 -23 -26 -51q0 -19 13 -32.5t35 -15.5q22 2 35 15.5t13 32.5q0 28 -26 51q15 -8 29 -8q20 0 32 16.5
t12 37.5q0 20 -10.5 33.5t-29.5 13.5q-18 0 -40 -12q-7 13 -7 22q0 14 16 23zM926 413h-24q8 -5 8 -12q0 -5 -4 -11q-10 6 -19 6q-19 0 -19 -23q0 -11 6 -19.5t16 -8.5q6 0 14 4q-14 -11 -14 -25q0 -21 24 -24q24 3 24 24q0 14 -13 25q7 -4 14 -4q10 0 16 8.5t6 19.5
q0 23 -20 23q-8 0 -19 -6q-4 7 -4 11q0 7 8 12zM206 987q-8 5 -8 12q0 4 4 11q11 -6 19 -6q20 0 20 24q0 10 -6 18.5t-16 8.5q-7 0 -14 -4q13 11 13 25q0 21 -24 24q-24 -3 -24 -24q0 -14 14 -25q-8 4 -14 4q-10 0 -16 -8.5t-6 -19.5q0 -23 19 -23q9 0 19 6q4 -6 4 -11
q0 -7 -8 -12h24zM225 1209q0 -16 -9.5 -24.5t-22.5 -8.5t-23 9t-10 24q0 13 9.5 20t22.5 7t23 -7t10 -20zM235 1153v56q0 18 -12.5 28t-29.5 10q-18 0 -30.5 -10t-12.5 -28q0 -23 12 -34t29 -11q12 0 22 5t12 13v-29q-7 -18 -32 -18t-29 17h-10q0 -13 11.5 -20.5t27.5 -7.5
t28 8t14 21zM865 247v-56q0 -18 12.5 -28t30.5 -10q17 0 29.5 10t12.5 28q0 23 -12 34t-29 11q-12 0 -22 -5t-12 -13v29q7 18 32 18t29 -17h10q0 13 -11.5 20.5t-27.5 7.5t-28 -7.5t-14 -21.5zM875 191q0 16 9.5 24.5t22.5 8.5t23 -9t10 -24q0 -13 -9.5 -19.5t-22.5 -6.5
t-23 7t-10 19zM980 120h-860v1160h860v-1160zM1000 1300h-900v-1200h900v1200z" />
    <glyph glyph-name="w" unicode="w" 
d="M238 1218q0 16 -10 25.5t-22 9.5q-13 0 -22.5 -9.5t-9.5 -25.5v-52q0 -16 9.5 -25t22.5 -9q12 0 22 9t10 25v52zM230 1213v-41q0 -29 -24 -29t-24 29v41q0 29 24 29t24 -29zM148 1132h10v120h-10v-120zM871 187v41q0 29 24 29t24 -29v-41q0 -28 -24 -28t-24 28zM863 182
q0 -16 9.5 -25t22.5 -9q12 0 22 9t10 25v52q0 16 -10 25.5t-22 9.5q-13 0 -22.5 -9.5t-9.5 -25.5v-52zM953 268h-10v-120h10v120zM394 425h-48q16 -9 16 -23q0 -9 -7 -22q-22 12 -40 12q-19 0 -29.5 -13.5t-10.5 -33.5q0 -21 12 -37.5t32 -16.5q14 0 29 8q-26 -23 -26 -51
q0 -19 13 -32.5t35 -15.5q22 2 35 15.5t13 32.5q0 28 -26 51q15 -8 29 -8q20 0 32 16.5t12 37.5q0 20 -10.5 33.5t-29.5 13.5q-18 0 -40 -12q-7 13 -7 22q0 14 16 23zM754 425h-48q16 -9 16 -23q0 -9 -7 -22q-22 12 -40 12q-19 0 -29.5 -13.5t-10.5 -33.5q0 -21 12 -37.5
t32 -16.5q14 0 29 8q-26 -23 -26 -51q0 -19 13 -32.5t35 -15.5q22 2 35 15.5t13 32.5q0 28 -26 51q15 -8 29 -8q20 0 32 16.5t12 37.5q0 20 -10.5 33.5t-29.5 13.5q-18 0 -40 -12q-7 13 -7 22q0 14 16 23zM574 845q-16 9 -16 23q0 9 7 22q22 -12 40 -12q19 0 29.5 13.5
t10.5 33.5q0 21 -12 37.5t-32 16.5q-14 0 -29 -8q26 23 26 51q0 19 -13 32.5t-35 15.5q-22 -2 -35 -15.5t-13 -32.5q0 -28 26 -51q-15 8 -29 8q-20 0 -32 -16.5t-12 -37.5q0 -20 10.5 -33.5t29.5 -13.5q18 0 40 12q7 -13 7 -22q0 -14 -16 -23h48zM394 720q-16 9 -16 23
q0 9 7 22q22 -12 40 -12q19 0 29.5 13.5t10.5 33.5q0 21 -12 37.5t-32 16.5q-14 0 -29 -8q26 23 26 51q0 19 -13 32.5t-35 15.5q-22 -2 -35 -15.5t-13 -32.5q0 -28 26 -51q-15 8 -29 8q-20 0 -32 -16.5t-12 -37.5q0 -20 10.5 -33.5t29.5 -13.5q18 0 40 12q7 -13 7 -22
q0 -14 -16 -23h48zM574 555h-48q16 -9 16 -23q0 -9 -7 -22q-22 12 -40 12q-19 0 -29.5 -13.5t-10.5 -33.5q0 -21 12 -37.5t32 -16.5q14 0 29 8q-26 -23 -26 -51q0 -19 13 -32.5t35 -15.5q22 2 35 15.5t13 32.5q0 28 -26 51q15 -8 29 -8q20 0 32 16.5t12 37.5
q0 20 -10.5 33.5t-29.5 13.5q-18 0 -40 -12q-7 13 -7 22q0 14 16 23zM394 975q-16 9 -16 23q0 9 7 22q22 -12 40 -12q19 0 29.5 13.5t10.5 33.5q0 21 -12 37.5t-32 16.5q-14 0 -29 -8q26 23 26 51q0 19 -13 32.5t-35 15.5q-22 -2 -35 -15.5t-13 -32.5q0 -28 26 -51
q-15 8 -29 8q-20 0 -32 -16.5t-12 -37.5q0 -20 10.5 -33.5t29.5 -13.5q18 0 40 12q7 -13 7 -22q0 -14 -16 -23h48zM754 680h-48q16 -9 16 -23q0 -9 -7 -22q-22 12 -40 12q-19 0 -29.5 -13.5t-10.5 -33.5q0 -21 12 -37.5t32 -16.5q14 0 29 8q-26 -23 -26 -51q0 -19 13 -32.5
t35 -15.5q22 2 35 15.5t13 32.5q0 28 -26 51q15 -8 29 -8q20 0 32 16.5t12 37.5q0 20 -10.5 33.5t-29.5 13.5q-18 0 -40 -12q-7 13 -7 22q0 14 16 23zM754 975q-16 9 -16 23q0 9 7 22q22 -12 40 -12q19 0 29.5 13.5t10.5 33.5q0 21 -12 37.5t-32 16.5q-14 0 -29 -8
q26 23 26 51q0 19 -13 32.5t-35 15.5q-22 -2 -35 -15.5t-13 -32.5q0 -28 26 -51q-15 8 -29 8q-20 0 -32 -16.5t-12 -37.5q0 -20 10.5 -33.5t29.5 -13.5q18 0 40 12q7 -13 7 -22q0 -14 -16 -23h48zM754 720q-16 9 -16 23q0 9 7 22q22 -12 40 -12q19 0 29.5 13.5t10.5 33.5
q0 21 -12 37.5t-32 16.5q-14 0 -29 -8q26 23 26 51q0 19 -13 32.5t-35 15.5q-22 -2 -35 -15.5t-13 -32.5q0 -28 26 -51q-15 8 -29 8q-20 0 -32 -16.5t-12 -37.5q0 -20 10.5 -33.5t29.5 -13.5q18 0 40 12q7 -13 7 -22q0 -14 -16 -23h48zM394 680h-48q16 -9 16 -23
q0 -9 -7 -22q-22 12 -40 12q-19 0 -29.5 -13.5t-10.5 -33.5q0 -21 12 -37.5t32 -16.5q14 0 29 8q-26 -23 -26 -51q0 -19 13 -32.5t35 -15.5q22 2 35 15.5t13 32.5q0 28 -26 51q15 -8 29 -8q20 0 32 16.5t12 37.5q0 20 -10.5 33.5t-29.5 13.5q-18 0 -40 -12q-7 13 -7 22
q0 14 16 23zM926 413h-24q8 -5 8 -12q0 -5 -4 -11q-10 6 -19 6q-19 0 -19 -23q0 -11 6 -19.5t16 -8.5q6 0 14 4q-14 -11 -14 -25q0 -21 24 -24q24 3 24 24q0 14 -13 25q7 -4 14 -4q10 0 16 8.5t6 19.5q0 23 -20 23q-8 0 -19 -6q-4 7 -4 11q0 7 8 12zM206 987q-8 5 -8 12
q0 4 4 11q11 -6 19 -6q20 0 20 24q0 10 -6 18.5t-16 8.5q-7 0 -14 -4q13 11 13 25q0 21 -24 24q-24 -3 -24 -24q0 -14 14 -25q-8 4 -14 4q-10 0 -16 -8.5t-6 -19.5q0 -23 19 -23q9 0 19 6q4 -6 4 -11q0 -7 -8 -12h24zM980 120h-860v1160h860v-1160zM1000 1300h-900v-1200
h900v1200z" />
    <glyph glyph-name="x" unicode="x" 
d="M724 540h-48q16 -9 16 -23q0 -9 -7 -22q-22 12 -40 12q-19 0 -29.5 -13.5t-10.5 -33.5q0 -21 12 -37.5t32 -16.5q14 0 29 8q-26 -23 -26 -51q0 -19 13 -32.5t35 -15.5q22 2 35 15.5t13 32.5q0 28 -26 51q15 -8 29 -8q20 0 32 16.5t12 37.5q0 20 -10.5 33.5t-29.5 13.5
q-18 0 -40 -12q-7 13 -7 22q0 14 16 23zM424 860q-16 9 -16 23q0 9 7 22q22 -12 40 -12q19 0 29.5 13.5t10.5 33.5q0 21 -12 37.5t-32 16.5q-14 0 -29 -8q26 23 26 51q0 19 -13 32.5t-35 15.5q-22 -2 -35 -15.5t-13 -32.5q0 -28 26 -51q-15 8 -29 8q-20 0 -32 -16.5
t-12 -37.5q0 -20 10.5 -33.5t29.5 -13.5q18 0 40 12q7 -13 7 -22q0 -14 -16 -23h48zM926 413h-24q8 -5 8 -12q0 -5 -4 -11q-10 6 -19 6q-19 0 -19 -23q0 -11 6 -19.5t16 -8.5q6 0 14 4q-14 -11 -14 -25q0 -21 24 -24q24 3 24 24q0 14 -13 25q7 -4 14 -4q10 0 16 8.5t6 19.5
q0 23 -20 23q-8 0 -19 -6q-4 7 -4 11q0 7 8 12zM206 987q-8 5 -8 12q0 4 4 11q11 -6 19 -6q20 0 20 24q0 10 -6 18.5t-16 8.5q-7 0 -14 -4q13 11 13 25q0 21 -24 24q-24 -3 -24 -24q0 -14 14 -25q-8 4 -14 4q-10 0 -16 -8.5t-6 -19.5q0 -23 19 -23q9 0 19 6q4 -6 4 -11
q0 -7 -8 -12h24zM172 1164h-17q0 -24 11 -37t26 -13q13 0 24 10.5t12 28.5v87h20v15h-62v-15h20v-77q0 -25 -15 -25q-7 0 -13 7.5t-6 18.5zM852 160v-15h62v15h-20v77q0 25 15 25q7 0 13 -7t6 -19h17q0 24 -11 37t-26 13q-13 0 -24 -10.5t-12 -28.5v-87h-20zM689 1024l40 62
h-250l40 -62q11 8 34.5 12t50.5 4t50.5 -4t34.5 -12zM687 1033q-10 6 -33.5 9.5t-50.5 3.5q-26 0 -48.5 -3t-31.5 -9l-29 42h220zM682 877q-5 -27 -31.5 -46.5t-59.5 -19.5q-2 0 -7 1h-7q-30 32 -44.5 74t-14.5 81q0 29 7 46q12 8 34.5 12t47.5 4q31 0 43 -5zM687 877
l-33 151q-12 7 -48 7q-25 0 -49 -4.5t-37 -13.5q-7 -19 -7 -50q0 -42 15 -85.5t48 -75.5q45 0 75 18.5t36 52.5zM529 964q5 -6 16 -6q12 0 19 9q-7 9 -17 9q-13 0 -18 -12zM624 964q-5 12 -18 12q-10 0 -17 -9q7 -9 20 -9q10 0 15 6zM578 957h-7l-5 -57h8zM559 870v-7h56v7
h-56zM662 1023l-5 6l40 -189h5zM671 1021l-6 5l40 -183l4 1zM689 1017l-5 6l36 -174l4 1zM676 1021l37 -175l4 2l-36 172zM341 658l7 -5q38 82 96 126t110 47l-12 7q-21 -1 -48 -13.5t-55.5 -35.5t-54 -55.5t-43.5 -70.5zM411 376l-40 -62h250l-40 62q-11 -8 -34.5 -12
t-50.5 -4t-50.5 4t-34.5 12zM413 367q10 -6 33.5 -9.5t50.5 -3.5t49 3t31 9l29 -42h-220zM418 523q6 27 32 46.5t59 19.5h7q6 -1 7 -1q31 -32 45 -73.5t14 -81.5q0 -29 -7 -46q-12 -8 -34.5 -12t-47.5 -4q-31 0 -43 5zM413 523l33 -151q12 -6 48 -6q25 0 49 4t37 13
q7 19 7 50q0 42 -15 85.5t-48 75.5q-45 0 -75 -18.5t-36 -52.5zM571 436q-5 6 -15 6q-13 0 -20 -9q7 -9 17 -9q13 0 18 12zM476 436q5 -12 18 -12q10 0 17 9q-7 9 -19 9q-11 0 -16 -6zM522 443h7l5 57h-8zM541 530v7h-56v-7h56zM438 377l5 -6l-40 189h-5zM429 379l6 -5
l-40 183l-4 -1zM411 383l5 -6l-36 174l-4 -1zM424 379l-37 175l-4 -2l36 -172zM759 742l-7 5q-38 -81 -96 -125.5t-110 -47.5l12 -7q21 1 48 13.5t55.5 35.5t54 55.5t43.5 70.5zM1000 1300h-900v-1200h900v1200zM980 120h-860v1160h860v-1160zM810 1110v-820h-520v820h520z
M270 1130v-860h560v860h-560z" />
    <glyph glyph-name="y" unicode="y" 
d="M424 860q-16 9 -16 23q0 9 7 22q22 -12 40 -12q19 0 29.5 13.5t10.5 33.5q0 21 -12 37.5t-32 16.5q-14 0 -29 -8q26 23 26 51q0 19 -13 32.5t-35 15.5q-22 -2 -35 -15.5t-13 -32.5q0 -28 26 -51q-15 8 -29 8q-20 0 -32 -16.5t-12 -37.5q0 -20 10.5 -33.5t29.5 -13.5
q18 0 40 12q7 -13 7 -22q0 -14 -16 -23h48zM724 540h-48q16 -9 16 -23q0 -9 -7 -22q-22 12 -40 12q-19 0 -29.5 -13.5t-10.5 -33.5q0 -21 12 -37.5t32 -16.5q14 0 29 8q-26 -23 -26 -51q0 -19 13 -32.5t35 -15.5q22 2 35 15.5t13 32.5q0 28 -26 51q15 -8 29 -8q20 0 32 16.5
t12 37.5q0 20 -10.5 33.5t-29.5 13.5q-18 0 -40 -12q-7 13 -7 22q0 14 16 23zM202 1161l14 -12q-8 -8 -21 -8q-16 0 -25 13.5t-9 32.5q0 18 9 31.5t25 13.5t25 -13.5t9 -31.5q0 -16 -6 -28l-13 14zM243 1122l11 12l-19 15q8 16 8 38q0 25 -12.5 44t-35.5 19t-35.5 -19
t-12.5 -44q0 -26 12.5 -45t35.5 -19q20 0 32 14zM857 278l-11 -12l19 -15q-8 -16 -8 -37q0 -26 12.5 -45t35.5 -19t35.5 19t12.5 45q0 25 -12.5 44t-35.5 19q-20 0 -32 -14zM898 239l-14 12q8 8 21 8q16 0 25.5 -13.5t9.5 -31.5q0 -19 -9.5 -32.5t-25.5 -13.5t-25 13.5
t-9 32.5q0 15 6 27l13 -14zM926 413h-24q8 -5 8 -12q0 -5 -4 -11q-10 6 -19 6q-19 0 -19 -23q0 -11 6 -19.5t16 -8.5q6 0 14 4q-14 -11 -14 -25q0 -21 24 -24q24 3 24 24q0 14 -13 25q7 -4 14 -4q10 0 16 8.5t6 19.5q0 23 -20 23q-8 0 -19 -6q-4 7 -4 11q0 7 8 12zM206 987
q-8 5 -8 12q0 4 4 11q11 -6 19 -6q20 0 20 24q0 10 -6 18.5t-16 8.5q-7 0 -14 -4q13 11 13 25q0 21 -24 24q-24 -3 -24 -24q0 -14 14 -25q-8 4 -14 4q-10 0 -16 -8.5t-6 -19.5q0 -23 19 -23q9 0 19 6q4 -6 4 -11q0 -7 -8 -12h24zM565 797l-131 -92l4 -9l133 94zM607 875v-7
h30v7h-30zM631 969l-14 -53h7l13 53h-6zM702 961q-3 36 -23 36q-13 0 -27 -18q2 0 7 1h6q23 0 37 -19zM579 961q14 19 38 19h5q5 -1 7 -1q-14 18 -27 18q-20 0 -23 -36zM713 812l-99 -30q-28 12 -40.5 48t-12.5 91q0 49 10 127q78 41 116 41q27 0 38 -19.5t11 -58.5
q0 -32 -10 -119q-8 -69 -12.5 -121t-4.5 -110q0 -35 2 -68l84 12q-8 78 -15 214q-4 82 -7.5 127t-13.5 81.5t-28.5 56t-50.5 19.5q-45 0 -121 -43q-11 -87 -11 -142q0 -61 13.5 -100.5t44.5 -52.5l107 34v13zM388 592l99 30q29 -12 41 -48t12 -90q0 -49 -10 -128
q-78 -41 -116 -41q-27 0 -38 19.5t-11 58.5q0 30 10 119q8 73 12.5 123t4.5 108q0 35 -2 68l-84 -12q9 -77 15 -214q4 -82 7.5 -127t13.5 -81.5t28.5 -56t50.5 -19.5q45 0 121 43q11 87 11 143q0 60 -13.5 99.5t-44.5 52.5l-107 -34v-13zM522 443q-14 -19 -37 -19h-6
q-5 1 -7 1q14 -18 27 -18q20 0 23 36zM399 443q3 -36 23 -36q13 0 27 18q-2 0 -7 -1h-5q-24 0 -38 19zM470 435l14 53h-7l-13 -53h6zM494 529v7h-30v-7h30zM554 612l131 92l-4 9l-133 -94zM1000 1300h-900v-1200h900v1200zM980 120h-860v1160h860v-1160zM810 1110v-820h-520
v820h520zM270 1130v-860h560v860h-560z" />
    <glyph glyph-name="z" unicode="z" 
d="M305 631l8 -8q31 85 85 129t102 44q2 0 6 -1h6v10q-22 0 -50 -8.5t-58 -28.5t-56.5 -54t-42.5 -83zM751 763q-2 69 -6.5 112.5t-11 66t-12.5 31t-13 14.5q-1 0 -2 1l-34 12q17 -39 25 -67.5t8 -63.5q0 -52 -22 -123zM596 909h-4l-12 -45h4zM622 840h-58v-6h58v6zM660 932
q-6 -4 -20 -4q-10 0 -17 2.5t-7 8.5l1 2v2v-5q-1 -2 -1 -4q0 -27 19 -27q17 0 25 25zM544 932q8 -25 25 -25q19 0 19 27q0 2 -1 4v5q0 -1 1 -2v-2q0 -6 -7 -8.5t-17 -2.5q-14 0 -20 4zM698 833l-1 8q-36 -29 -71 -42.5t-61 -13.5q-26 3 -37 26t-11 59q0 25 4 52t10 57l-9 -3
q-1 -3 -1 -4q-6 -30 -9.5 -54.5t-3.5 -50.5q0 -34 9.5 -56.5t33.5 -27.5l38 -72l36 80q16 2 33 11.5t40 30.5zM750 1080l-44 -25l-25 31l-25 -31l-35 28l-31 -31l-35 28l-28 -32l-44 26l34 -92q13 12 42.5 18.5t62.5 6.5q31 0 56 -5.5t34 -15.5zM350 320l44 25l25 -31l25 31
l35 -28l31 31l35 -28l28 32l44 -26l-34 92q-13 -12 -42.5 -18t-62.5 -6q-31 0 -56 5t-34 15zM402 567l1 -8q36 29 71.5 42.5t60.5 13.5q26 -3 37 -26t11 -59q0 -25 -4 -52t-10 -57l9 3q1 3 1 4q6 30 9.5 54.5t3.5 50.5q0 34 -9.5 57t-33.5 27l-38 72l-36 -80
q-16 -2 -33 -11.5t-40 -30.5zM556 468q-8 25 -25 25q-19 0 -19 -27q0 -2 1 -4v-5v2l-1 2q0 6 7 8.5t17 2.5q14 0 20 -4zM440 468q6 4 20 4q10 0 17 -2.5t7 -8.5v-2q-1 -1 -1 -2v5q1 2 1 4q0 27 -19 27q-17 0 -25 -25zM478 560h58v6h-58v-6zM504 491h4l12 45h-4zM349 637
q2 -69 6.5 -112.5t11 -66t12.5 -31t13 -14.5q1 0 2 -1l34 -12q-17 39 -25 67.5t-8 63.5q0 53 22 123zM795 769l-8 8q-31 -85 -85 -129t-102 -44q-2 0 -6 1h-6v-10q22 0 50 8.5t58 28.5t56.5 54t42.5 83zM184 1182l47 68h-18l-38 -59v59h-15v-131h15v52l38 -52h18zM869 281
l47 -63l-47 -68h18l38 59v-59h15v131h-15v-52l-38 52h-18zM424 860q-16 9 -16 23q0 9 7 22q22 -12 40 -12q19 0 29.5 13.5t10.5 33.5q0 21 -12 37.5t-32 16.5q-14 0 -29 -8q26 23 26 51q0 19 -13 32.5t-35 15.5q-22 -2 -35 -15.5t-13 -32.5q0 -28 26 -51q-15 8 -29 8
q-20 0 -32 -16.5t-12 -37.5q0 -20 10.5 -33.5t29.5 -13.5q18 0 40 12q7 -13 7 -22q0 -14 -16 -23h48zM724 540h-48q16 -9 16 -23q0 -9 -7 -22q-22 12 -40 12q-19 0 -29.5 -13.5t-10.5 -33.5q0 -21 12 -37.5t32 -16.5q14 0 29 8q-26 -23 -26 -51q0 -19 13 -32.5t35 -15.5
q22 2 35 15.5t13 32.5q0 28 -26 51q15 -8 29 -8q20 0 32 16.5t12 37.5q0 20 -10.5 33.5t-29.5 13.5q-18 0 -40 -12q-7 13 -7 22q0 14 16 23zM926 413h-24q8 -5 8 -12q0 -5 -4 -11q-10 6 -19 6q-19 0 -19 -23q0 -11 6 -19.5t16 -8.5q6 0 14 4q-14 -11 -14 -25q0 -21 24 -24
q24 3 24 24q0 14 -13 25q7 -4 14 -4q10 0 16 8.5t6 19.5q0 23 -20 23q-8 0 -19 -6q-4 7 -4 11q0 7 8 12zM206 987q-8 5 -8 12q0 4 4 11q11 -6 19 -6q20 0 20 24q0 10 -6 18.5t-16 8.5q-7 0 -14 -4q13 11 13 25q0 21 -24 24q-24 -3 -24 -24q0 -14 14 -25q-8 4 -14 4
q-10 0 -16 -8.5t-6 -19.5q0 -23 19 -23q9 0 19 6q4 -6 4 -11q0 -7 -8 -12h24zM1000 1300h-900v-1200h900v1200zM980 120h-860v1160h860v-1160zM810 1110v-820h-520v820h520zM270 1130v-860h560v860h-560z" />
    <glyph glyph-name="exclam" unicode="!" 
d="M550 490q-28 0 -44 18t-16 42t16 42t44 18t44 -18t16 -42t-16 -42t-44 -18zM1000 1000h-900v-900h900v900z" />
    <glyph glyph-name="numbersign" unicode="#" 
d="M550 490q-28 0 -44 18t-16 42t16 42t44 18t44 -18t16 -42t-16 -42t-44 -18zM260 780q-28 0 -44 18t-16 42t16 42t44 18t44 -18t16 -42t-16 -42t-44 -18zM840 200q-28 0 -44 18t-16 42t16 42t44 18t44 -18t16 -42t-16 -42t-44 -18zM1000 1000h-900v-900h900v900z" />
    <glyph glyph-name="dollar" unicode="$" 
d="M840 200q-28 0 -44 18t-16 42t16 42t44 18t44 -18t16 -42t-16 -42t-44 -18zM260 780q-28 0 -44 18t-16 42t16 42t44 18t44 -18t16 -42t-16 -42t-44 -18zM260 200q-28 0 -44 18t-16 42t16 42t44 18t44 -18t16 -42t-16 -42t-44 -18zM840 780q-28 0 -44 18t-16 42t16 42
t44 18t44 -18t16 -42t-16 -42t-44 -18zM1000 1000h-900v-900h900v900z" />
  </font>
</defs>
</svg>
